<mxfile host="app.diagrams.net" modified="2024-01-30T02:59:28.597Z" agent="Mozilla/5.0 (Windows NT 10.0; Win64; x64; rv:122.0) Gecko/20100101 Firefox/122.0" etag="uH5HygCW1nqmZmgK0wF0" version="23.0.2" type="github">
  <diagram id="C5RBs43oDa-KdzZeNtuy" name="Page-1">
    <mxGraphModel dx="1324" dy="875" grid="1" gridSize="10" guides="1" tooltips="1" connect="1" arrows="1" fold="1" page="1" pageScale="1" pageWidth="827" pageHeight="1169" math="0" shadow="0">
      <root>
        <mxCell id="WIyWlLk6GJQsqaUBKTNV-0" />
        <mxCell id="WIyWlLk6GJQsqaUBKTNV-1" parent="WIyWlLk6GJQsqaUBKTNV-0" />
        <mxCell id="9NRVor-_VpwXLTIwyfvW-42" style="edgeStyle=orthogonalEdgeStyle;rounded=0;orthogonalLoop=1;jettySize=auto;html=1;exitX=0.55;exitY=0.95;exitDx=0;exitDy=0;exitPerimeter=0;entryX=1;entryY=0.5;entryDx=0;entryDy=0;" parent="WIyWlLk6GJQsqaUBKTNV-1" target="9NRVor-_VpwXLTIwyfvW-4" edge="1">
          <mxGeometry relative="1" as="geometry">
            <mxPoint x="334.5" y="224" as="sourcePoint" />
            <Array as="points">
              <mxPoint x="335" y="335" />
            </Array>
          </mxGeometry>
        </mxCell>
        <mxCell id="9NRVor-_VpwXLTIwyfvW-6" value="" style="group" parent="WIyWlLk6GJQsqaUBKTNV-1" vertex="1" connectable="0">
          <mxGeometry x="75" y="300" width="80" height="90" as="geometry" />
        </mxCell>
        <mxCell id="9NRVor-_VpwXLTIwyfvW-4" value="" style="shape=image;verticalLabelPosition=bottom;labelBackgroundColor=default;verticalAlign=top;aspect=fixed;imageAspect=0;image=data:image/png,iVBORw0KGgoAAAANSUhEUgAAAOEAAADhCAMAAAAJbSJIAAAA81BMVEX///8vZ7pk1PlDdsFm2PstYrgmUpUfX7elt9xKn9nMzMwvaLssYLfJyckYXbZCdcHG0ehUsuQARI4uZLTR0M1VtubR1+Q0br46cb8iSpAnVZv19fUkTpLt7e23yOX2+fzQ2+4qXKeUpsXi4uK4v8rW1tans8eVrtlNfcRbhsju8vl2mdBgzPQtYaBdgr+DmsPb4/JOptStv+BulM6Pqtdbwe5DkNFokMw4d7BJm8tBZqFdxe1qi8BIm9e3xNkya6Y/h7yGnMOvuMg7f8ZPquBSrttthbIAPoudrcpVdagPTZo3d7Y5fMYtYqkASp7P09l1kcECQcnSAAAQqUlEQVR4nO2diXbiuBKGcUCYYMBpILFN2MNOSMi+p7N00j19Z+7k/Z/mSjYk2JQW27Kh7+Gf6ZmTNFb0uUpVkkp2EomNNtpoo4022mijjTbaaKM/RKNm/bQ/PhsOB4OknhwMhsOzcf+03hytumOh1RhN6/2rpKYZhmGapq7rydkf/BX+nqYlr/qnzVFj1R0NpMa0fj40NUymJ+nSCak5PD+d/mGUo/p4YBrYaB6aT7n/QseYg7P6H+O00/4A28XVfU2BhJ336yaQjyX701V3nq9pf6jNLURnW+KcYZraYL0hR6fDeW91ETgX5ozSNIaZdXXX5ticddP0RfdFac5ujjlurhpmWY36wPFO7JoB6OYyZm1og/p6BddRZmCEx3NBGoM1ctZGRjcc9wrinMvSHGfHoXU97Ij57LtuysGbQZpOAs2sAWNdJ3dcl8rnMJJmDb2+Yr7mlSHdfp+Mhu35w+YK+RpjO8BHwmcz2r5qjFfmqnWT9CB89GTJvoPGalx1dEYcNDL7zUXsqBtXK8gctgH1qPmI7BsZe8TBI5D83Bj4iMz4R2NTN2Nw0C9p5HaazfgAT4kBo40wXpHMYWTiAiQeGssIXBQ2Y1yeOhqYcRvQETajOYghppIhqK8C0EHUm1ED1s0VeOhcxFPNiNNGBg/BuHIEJOI/kcabvrGaIfgl0oF+dIDn0gGRWsBSkT/E8ygBpQ5BVBhmmtNR8/SqIM6oRYcoHbAw/NwbHY0Lq0fEgHKDaMEVMuo+rKhHgtiXDnjq/gFNH1bUIwg3GemAS1ao+0OUnDTqsgGV5PIPufLnqFJTf9PUJQMWgP41VfHrNV2XuZoayZ+pqdDPGfhogMzg5E3D8WpCMiAaQj/n3IcRcdIwB7IAx6b0qZoKRvtTP4R4dmOO5QDiMCp9LqqCkXBHPJo6iHICajMCQDmEBLEZHrCh67p0QEmEiq4nw+9rjM0IAGURKnr4oYhTfRQrelmEWujEP5IfRqUSkoAaLitemdHsWUgjVEzzKgxg3YhiECoyCTU9jJ82IvJRmYTET4PH03FEPiqVEPtp4HiKc71ssrlkEirB8/4wur1tqYSGHjDY1I3o9n6lEioBy+AN2YveRcklxMvhIMEmI+EEF1VyCRXDDLDIaEQyH51LMiGen/o3YqQmlE4YwIijKNZMX5JNqOhJv9PTaE0on9C3ERuDaKuE0gkVc+BvJNYlHRWlST6h4TMnRmzCCAgVf3uLTSPiSm8EhIav2ek46lp9BISKnyXGSDiQIoRyuRz+r6uoQr63JJ+EyCmAFwqqisQqNoaP/YyMACBGM/5+fdj+8W3327cfD5evJsrNeoIedgFdihOqBTU5HPdPd7DqmfOzgSFU6jdOoUZBDbmEOeV1++JwK0W0Nfvf3e5l0obM7eKvFv/ZIl9vL/aRQagWkuc7ngf2RtPTM4Vb6zfAYgikKSdVoNzrty0bzSNMuW3klNy35b8SJEQFI0N78GnnrMCua2iG6DNTfaYJkbF9CNDNQVIXlyEIz5qsjjUyJjMWCZe+BwwTIvPHFhVvzngBfVuAcMq3QT3JYDQEU+JUoxOibQ4fHVyAUESNU3rQ0TQxN6U7ae71MCCfPEIcdq6oZhR0U7qT/gjMJ5OQnL2hmFETctMRBRCZdyEApRImpklKVNVEkn4dJkQhPFQ6YaJB8VRNZIExBglzl6H4ZBMmEucgoiYwN22ARz5CA0onpCAKrIOnUCRFoQHlE8KIAtOaOgT4GhowAsLEGRRu+APxHABMhuaLhDAxAJIG91hmYwjcl3BRNDrCEUA45A3E0fIwBCfSa0EIbQoYvIw4XfbR8FEmMsLEeGkoIl6oWT6MbBzKAIyIsLG0oYR4oabvJcyFmYxGTrh8sBjxJt9L53RNHuBsJ2NFhImkp8OIVw/21mNyu8x+H16c3GC93XGXjf4JRzu9X79+PXLePrR0AB44Xu2S14R/03ueOny7TluWVcV/rMnTBRvSJ+H0+bZYJA0Xf6bfH1mQQ68R2Q2PPLGJlSluJlY1PVe1an2/YCH6Itx7Ly60bRUnv+if9WYMlZ0uvIfJTWqHLxb5HEjrSRLhcdHbdPGWmgQanoGlNpmEdTcheqCYJXVj81VaJbI7opRKLftmT+4kEI5ui6SxVqk0a7piM/Zon++7+6yy04XnpDWiOB4GtPvwuWdFuoI7Uk1D22z+CKe4lXTFppu3bd+/nzRPnXoI2TvfnvtBSRU2YEvxLJW1EkGkzQ9ECUe4jUrJ27SCbx/Viu6TWyo7IY7dFRaKk75hQG8n7I600tXvIQlvrXQLahrfvuIefIn7IQbEXua7E35uFyQ8xLcZArQRrSeK3cUI20UQkCBWqhM4a7hTIiflu5NLDu7rk5WG+jBDrMLRRoxwClvQUbrYBi9quAnZ9Rn3Jo0Bm9CiWNBBrMJGFCM8tuiA2FGLsBHd02/2nql70ILrJhxm6L3A/agUwWAjRDj6WWE13bLgeOqOHuxpm+tuoG3QGhNWLxSlZN2AN0aEsFcssZrWKrfgZRlXqDGZhK4VPgKrZHdVZi/wnf4emPAvlnfYdw+c2riXUAaT0PUD4FB68pt31KYa1EsbVU7L2u9H6Dp3MNV8EIJ1wCe2CYkvQTMhofoh9+apz+B1Pmzo8tIcFDJS15xOKErrLaAN97inTdA7dN3IB6Er0sCE/+ES5t4C2lCA8J5PyI40rpUITPgaHSH/xJAIITtbuPJhDpqdpF65J1sQtPMhQsh/JB+dhSU8WuxGDowYl3zCwJGG+5Qs/HStK9KgIybhvYsQtMUP/ukk4DKxbMFtGnrI3TN+YUf+1LGL8ASyxQW3G+DulVDG9+4qLUkFM/6ji/CYSdhe9BMET7945xbhyZ4QYYbnpjp42a/Fy1R4AQJ+FoGrhNQD50aDIVhw5s0JNZT1+4eraca+XMJjb+UfePWUU1iiVHLEVk/LlRaXCvDq6R/XZ8CJ3adcY1b7DXWVZ0TK7pXgCphJWIBN2Pjv4mSvQNnrmOnATQhNv7ARWSf7aHs7grsYfZafUh6M2XMTHjAJa66pb4myXN+l+ynSQT7xnSiocj3vexO+xBUeFa3GJNx3b2NMaPagI9Iq4sK7iQoN0ftSok/duj422GcSulO+ZlE2eFMPMCLSqLUL8R1hDUakDELvmgt9sAHdFtdaYEbcos1sWEfffOzqQ4fWENWCibaLkJMOE4kXV+ulCbXDF4aXEeUuGQU2P5WZ8dKR7gL9hUKNW9eSXH3hEP7rbtuCoynpcWrbyC18GKG/4f3jAISJ5nDxSDcqsB7beiy67/O/HMID1/pJq4C7SrM+H357VexnLVAuZ15esGvdfiuk5zp51EJVCwXlivl7Ejy7V0l2ssDB1BVqlJLFMkwqdXjxY/vhYfvb3Ravlu+7yt2Y7mT6/UydU+Xec29AontOKPUmF6VCSRhfkCs+qXBbcfWXG2hwqHHZUGtZ0BIqgCIifCy6nRR1uJf865mS0SuC60DYmHiKREaXe83BkesKbERKuWwtCL2VHHTECzQ41LTd+UKrWNDW2XoQ7ngrOajNDTSJRMc9u9dKtIrg6glH1aqnzlfgD8NEousZiFqlSp3ZrJjwtuotgwkMQzwQP7xTprR1vZaE70u1aPTBH4Z4IPY8i1Dsp8yzQKsifC4u1aILLwLDMJHIezfTGOcPVkj4DJxpMPNCl3aX3FSrhEeUTYgBl2rR6ENkGCYStZfl9VmFjMV1eiroHQMu9VJ9Ye9gfCoPvB6qkq5O1ufJrtGtBQAqSTEnxW56DCzgMWI6zBRVJuFjtQoBomcxJ8Vu2oG2KCpp7Knr8IQl9lAQEM+6BZ00kSgfAYg4oqar1o3AaAyxIyygXpEcGwQK/uioLNzIgTclfiKmrckJjzHSJ50f7cOn4KGUQk8k3TuqlcFdbc0+QmpNbphPq+9eF4NWuR9/HjMZG73bon34FDyyYZaFnRS7aRuuH9hmrFrV6zdo14K8V4Ec/gYXI0J1/KJVvO3RzmnvvVv2wWTKqSK1Le6k2E3zlNKEprTSM8ibO/utEeS1EOTf1OHd29PE7kNgwr0iOe5c/Ku953lrRGPae6+S8Qcc3J3LyIs7KVYWShgOo3OkG0Na6e/XTzcnb1gnN0/XE4xtH0CvCLxTAZ3vAcqoFafpYvX2/fnX4w7+3mOv/f7XpOjgkYPXlH6h46wfwES3Q2noy472Iwj2sxbkmYtqdXa8vlUSeS+G1ioC+u2cFp893WA537Rbt79XodqPqCOaDB3tl6lGtBmdA/RLwnga5SENLyF4uWa3DTZdcdqmCR2XhZYVC0bM01uzu2hTfvWlUml9Ht0PTOhMpe2mPW0vHN2nKO/PhCRhsIz4SakoJVvki88uCBDOLvNqoWkNbJom/ybkG5EhEULJ0nybkIxESk7kK35CnAt9mxAbMevn100sKn7CQda/CbERs72ARoydEPXyAUyIjQguMQQUNyFeVAQxITFi/g8hzGcDmRDPTgMGm5gJcZjxNSNdVLbMON1CV7yEaFD2NyNdVC3PmJ7SFbMNO3kf60KvuoH8NFZC7KPBwoyj/WyQeBonIY6jQcOMo1o+wOQtVhvmw/goUbfc892zGAlRL5SPEmE/PfY7FOMjVJ9DxNG5annfQzE2QjwIw/oo0UE26/Odu7ERGtls4Fy/qG7ZZ1aMjbATehA6wkPRX7SJiRBHmXCJ4kt4KPpK/PEQ4lQvYxA6Osj7CqixEKrHZX9bwGx18+UPccQ4CNWPcoCtGRZi1gcigl4tJfDMmz/AQBsXDGWz5XtRRPCpmdTfEgnV+3I2fKoPgfjPMuDWVmvNAXHOEHZU7ffyMwmpE86j9n4BJeWJYIha63rZTSe8h9yFVfiIBtBBFEsapaWDxaknSxYgThMRATqIbaF4kfYcgE+dWOyXaYgLtaMDdBB7Aj0lb6l5WyiDk7cu0V/44k+9KAEdxI4pYEbn7I3NmErdXYMnmAIIGZ1oARP27CZ7xB+M5KVY1vXNxd3d7s13UtuXEmfUo6zkmQyMmC0/80uLJafUb1fA0/B7s3wL4RgTPSCZhpPByGPUFmvVlAMwPvnIEJQ52aarhhHzfE/V5qV+KXzYQ/H4kLdcYms/ixnb1Gc9PxE1u07NOl8gLKTgJBG4ABNAZDB2BAKOLKmDTjxD8EtkMGbbgr+mKKwQzvJxDcEv7Zft0RgHojMCY/TQubAZcVAdRO2qapLMYuI2oCM74GTb3MQRRkhrZ4kBY4qhS7LNmD/mRtXAfMpxfmUGdLTfjZARaQ5fN/4RuKhaljB2jg3Z41E1jskse3UO+qUDmzHfNrm/F01cqGC0bfut0kEX5DCWe0eSnBWho17Ztt968BHNGDvPSZHf4sfGU5PYPdeMj8hmxIH95SOMt6KC+fGCW1k/PqJaOW8bMigkQqpB8Gw+Pw8WxKj9mSGxu7aPDOTDYRFCxlEbO+fMfKvND0zVujYkpsy/tO+TSoE7OcemU5L37Ze8TYev7q6n+RZU6+ZtSOJvnZf2x8AoFFTv72IlViO/StUYfDz3OtnyDC+//niOathd55Sk851e+/nj/iipm4amaIapJ4/uP57bBG0ORy44+EPwHO0fdMtzzBnosmZ/m8ef667z2KNqv3bQJd2fcy4r78DV/kS6LxFOB9SjbPePZ3Nrf7/2pf3/J7KNNtpoo4022mij6PU/rrrYm2HGhZwAAAAASUVORK5CYII=;" parent="9NRVor-_VpwXLTIwyfvW-6" vertex="1">
          <mxGeometry x="5" width="70" height="70" as="geometry" />
        </mxCell>
        <mxCell id="9NRVor-_VpwXLTIwyfvW-5" value="Qbitorrent" style="text;html=1;align=center;verticalAlign=middle;resizable=0;points=[];autosize=1;strokeColor=none;fillColor=none;" parent="9NRVor-_VpwXLTIwyfvW-6" vertex="1">
          <mxGeometry y="60" width="80" height="30" as="geometry" />
        </mxCell>
        <mxCell id="9NRVor-_VpwXLTIwyfvW-10" value="" style="group" parent="WIyWlLk6GJQsqaUBKTNV-1" vertex="1" connectable="0">
          <mxGeometry x="230" y="450" width="60" height="70" as="geometry" />
        </mxCell>
        <mxCell id="9NRVor-_VpwXLTIwyfvW-0" value="" style="shape=image;verticalLabelPosition=bottom;labelBackgroundColor=default;verticalAlign=top;aspect=fixed;imageAspect=0;image=data:image/svg+xml,PHN2ZyB4bWxucz0iaHR0cDovL3d3dy53My5vcmcvMjAwMC9zdmciIGZpbGw9Im5vbmUiIHZpZXdCb3g9IjAgMCAyNTYgMjU2IiBoZWlnaHQ9IjI1NiIgd2lkdGg9IjI1NiI+JiN4YTs8ZyBjbGlwLXBhdGg9InVybCgjY2xpcDBfMTk2MF85NTY3KSI+JiN4YTs8cGF0aCBmaWxsPSIjNDc0QjUwIiBkPSJNMjU2IDBIMFYyNTZIMjU2VjBaIi8+JiN4YTs8cGF0aCBmaWxsPSJ3aGl0ZSIgZD0iTTY4LjU2NTkgNjguMzE4Mkw2OS44OTIyIDE5NC4zMDFDNTkuMjgzIDE5NS42MjggNTEuMzI2MSAxOTAuMzIzIDUxLjMyNjEgMTc5LjcxNEw1MCA3NC45NDg4QzUwIDQxLjc5NTQgODAuNTAxMiAzMy44Mzg1IDk5LjA2NzEgNDcuMDk5OUwxOTMuMjIzIDEwMS40NzJDMjA2LjQ4NCAxMTAuNzU1IDIwOS4xMzcgMTI3Ljk5NCAyMDIuNTA2IDEzOS45M0MyMDEuMTggMTMwLjY0NyAxOTcuMjAyIDEyNS4zNDIgMTg5LjI0NSAxMjAuMDM4TDgzLjE1MzQgNjAuMzYxM0M3NS4xOTY3IDU1LjA1NjcgNjguNTY1OSA1Ni4zODI5IDY4LjU2NTkgNjguMzE4MloiLz4mI3hhOzxwYXRoIGZpbGw9IndoaXRlIiBkPSJNNjAuNjA5MSAyMDAuOTMyQzY4LjU2NTkgMjAzLjU4NCA3Ni41MjI4IDIwMi4yNTggODMuMTUzNSAxOTguMjhMMTkxLjg5NyAxMzQuNjI1QzE5OC41MjggMTQzLjkwOCAxOTcuMjAyIDE1My4xOTEgMTg5LjI0NSAxNTguNDk1TDk3Ljc0MSAyMTEuNTQxQzg0LjQ3OTYgMjE4LjE3MiA2Ny4yMzk4IDIxMS41NDEgNjAuNjA5MSAyMDAuOTMyWiIvPiYjeGE7PHBhdGggZmlsbD0iI0ZGQzIzMCIgZD0iTTkyLjQzNjQgMTYzLjc5N0wxNTcuNDE3IDEyNi42NjVMOTMuNzYyNiA5MC44NTk0TDkyLjQzNjQgMTYzLjc5N1oiLz4mI3hhOzwvZz4mI3hhOzxkZWZzPiYjeGE7PGNsaXBQYXRoIGlkPSJjbGlwMF8xOTYwXzk1NjciPiYjeGE7PHJlY3QgZmlsbD0id2hpdGUiIGhlaWdodD0iMjU2IiB3aWR0aD0iMjU2Ii8+JiN4YTs8L2NsaXBQYXRoPiYjeGE7PC9kZWZzPiYjeGE7PC9zdmc+;" parent="9NRVor-_VpwXLTIwyfvW-10" vertex="1">
          <mxGeometry x="5" width="50" height="50" as="geometry" />
        </mxCell>
        <mxCell id="9NRVor-_VpwXLTIwyfvW-8" value="sonarr" style="text;html=1;align=center;verticalAlign=middle;resizable=0;points=[];autosize=1;strokeColor=none;fillColor=none;" parent="9NRVor-_VpwXLTIwyfvW-10" vertex="1">
          <mxGeometry y="40" width="60" height="30" as="geometry" />
        </mxCell>
        <mxCell id="9NRVor-_VpwXLTIwyfvW-11" value="" style="group" parent="WIyWlLk6GJQsqaUBKTNV-1" vertex="1" connectable="0">
          <mxGeometry x="140" y="450" width="60" height="70" as="geometry" />
        </mxCell>
        <mxCell id="9NRVor-_VpwXLTIwyfvW-1" value="" style="shape=image;verticalLabelPosition=bottom;labelBackgroundColor=default;verticalAlign=top;aspect=fixed;imageAspect=0;image=data:image/png,iVBORw0KGgoAAAANSUhEUgAAAOEAAADhCAMAAAAJbSJIAAAA4VBMVEUjJjLu7u46P1EAzP/x8fEAzv8A0P82O047PE309PQ7O0wgIzA6PU8fIi8A0f8zOUzm5ucUGCcYHCro6OksMkc8OEggKD9BRlfg4OEAx/k4QlUWpc82SFwACh4AABcOEyQwMz7NztG+v8MAABJxdIAjgqRPU2KYmqMzVGstZoEhjLAJt+UAABqnqKw4OkOMjpNXWWFeYnB+gYuys7lVWGcbmsEvV29LTVZ8fYIhepo9M0IGuuoTrtq7vMFDRU57foksa4hpa3NfYGckRVY9LDoA2P+QkpueoKQ0T2Y5bIUvN0S9fgg2AAASH0lEQVR4nO2daXeizNaGFQsRAQfUBodEsR2ixiHOPg7RPKc17/v/f9CpQoViEAtBTa/D/aVXu6LFxa7au8ZdoVCgQIECBQoUKFCgQIECBQoUKFCgQIECBQoUKND/jDhOEMR0ufzy8vL++vv379f395eXcjktCgLHPfvhvAqyhUKVSm+26x+6o6qiyGEWpGSlOuoe+rtZr1IJhQQI+uznvE2CKIZ6g12/u1bCLBJACkOhf9VPWLna7c8Hm4ooCs9+XLcSRGHzNW+uZZUsfEkqaap6mH9tQum/CJITy5u5ajoHOJyTBciYM1H8O6qrUK7sulWZkE43ZkYZzXtl8dmPf1VieXCA/sQNnU4pK91dOv1sBCdx6fedkgq7sp4RMpyS5+XyD22RnMBV5vLtdJolU/0e9xMDiFgZ9GHj88inik0dBpWf1iAF8evgE9+Rsfsl/KS6yqU3fcU/PpVR7s/SP6aqiqF59Sbv6SQQrs5/SlVNz0ay33wqY2o9+Amhg3vpp3w34AkxnGq+PL01CkLVc4BwYAQK99yunBAayOzd+FRG+Sv0RDOKvf5dWqABEXYAnuZwuEE3c29A1BpHg2dV1M1OuW8VPYk9zJ6CKMwkqnb3SooAlZrUeEJFFRoSRTEPQATKjuGlxsPdjQpIUcmPe7dEIH8wsCCp8WjCIyBEHN8XEciNpFqQJFUeyVeRToDIivesqOwZ8MGI/25LPKUh3rEtAmV8BqRipcXbwwjb+XpBR7yfuwHVDwwQlvogPqGx7UBEStfnfRBZRXUyR8BCO1+cPsajimOJb3Ui9RiGeBcrAgyQ4ieR4hv/kLgIAeEbbS0Ti390Qqbmv0c1AP5nEi2itv8IxIHqRXPTzp9FXEfM+h4XgULpbTA2SRQptdLcPy7OTmECIibqFOZRdylfEYHCaBaMl6AF+VOrkDZ35eMqWhzMTZeRekFvjP4GDaBIOuA3bINx7WVKlTt2w4XeZ4PREZFH1RH5oX+IMEzogG/FyKSkl8M07ofIhfryQX+3sdbKEBcp/xAxwNh3MT/BOxjj0fxegCHhKwUyTUornG+tInUs8vsWF0d6TYmVVhEckGmsw/LsTmGRC0EAEG5qLo7ip51oHQ8afvRRQbiL1ZN4h57g/SdpjRpp+T719KWqjujZZhZrI50/9ZyOmJQ8I4LMPqsRxQpLehLHAdVnYLvlewCm56eHZ7GKChENQYOhqp4CIwgr46z2a7G3Dt3G68gREP7Z/A5TxcJGN08Td+UdGveoTLKv3D5BDKAnMzSCyAQDTDbW7Pnver43RU7o6s+RwRFR0MCcORwwdm+sqiBT/WSwrmirk29j/abkeK39aebge+8tPcceG6QMiKagkZQ+Ryn3k3AAVPcN3YAwGEHAAm8LCI248xlR2FRxu4DUXm98PEKkMDFJqTYKu2MErDIcJ3UDwhe3vAwINfI57ot90wNl9nh7WdG4R4WfJKVdN0W8ogjY8PpzjFVQ1GPK5w0urFE1fiflr7MRBor5aWHQ0N838qgQEauqDMNIn0r4vA3qMhz6A6XZYPAGGONz00gEf2nQi5p+B1T9jftNa51jm4xGFC+t/tSpQusbY4SG/EXVuoqcyoSBkRQcFc6kZFlp1phfWdx8se2k1crn8fFnUrLOrrN9H/mEmZ13BHus1ZRg5Gob+lfqq09ms1JtP1IURZbl1FEyEvxEqTY/P6hsNmn4ChXfLhMdE2Cjan3DQNn4Z0ThYOc2YFvE4+IqmqdpfBBwNiXCbIx3teH+qOHws/YxbkhZCMeY/5rKbZfRCB01xMGxuYoejTj3jVDYZGwKUD2qjpibRCORSHTCWxCPmEwSF2NFO/1Ma4l+h15utUiY/KjaF6/45k5fRhc8P4qLp2oZX0ToCHq0CcVfeHgS5VqdqPozCY3wEiAyok/ulAtdKAFV1OHJGLHv5fHRIl4QIeDxPUW1AJs0hwmsdPnVH8J032GDaLh2chQwQp8R7SuqG0BaA7SGCbx0nzo2olM3E4DztHRuen48s0clVexcRfPaZCwcqzj0jYDy4gtgLXW5DHVxiDkjriJeEOM64PnrPNV17PylBn64U3HtVAZEHJ39Yq618mDFnA6of9i80vHzYygsDK6NhTLDrPaQGmLcLSKs5Kd2XOfP303u7cOU/nb9CBjl5pVS0BIYY35MiHijBaN6f/v6FCyQa559DVdZXx8hdPW4/6Z5VFeIMT1MaBbkpdHVksNdzyHRZlRhY8Sd1reEw4wzopuYEd/m1a4MPumT7F+rPb50TtMExYTZLvasb2pbpJctV0bMtfK0oQ1SzMf1d+vDMJELObvr05uUd3o/Mw6DBh1dTnNmiFg8zheQ+HjM6ofgkDeab+P9IZsRm93L9WhCYebQpcDKORjMsbIC8rnCW2tbbyPVt61vymJh6GtwQGZMYsIwWHuspuLOMdxr5ejuVDXHpGUE5HOlbbvYySeiSIl8p9jelixGfsOjKDMkmugBypdHb9onm1ACNXw4FDcF/FypXlzSUVp1l2owidLL4qJgtjP+H4ao8kDNPRFyPZJmCMWOLkf4WHzRyUfPdGfR0fxqm7v4LaZBCMg2PVlQ2BA1BqgMdXFM+13M02a+oyXzE2tVPSlJVklRp7HnpVsjDAhixfFV1pL2jxrfLi320+3YuRRTsqSVFHhbaxN2pPO6bDdr/6iL/CU+pOhycYGQsFxYsrdBIqGjQT7NljDuDIhGEgs7KzIfxEsfnmYVucqIuCBg1xDVnoqz6HzLpi0mh+SEB0+EpI4GxQtrQ4x9Hzupjop2rDOQVLZLXrCXFQyhR1oMmh+2EsaL1wEhYtFaT4kdjccxorAhX0ACI0tDzF1rhFpTtNTTX26WID2EC2HggtDiamKlDgkgROxYJj2SLghZD+FCJA4WKC6Za2l8QsSHjNg2998kmbhgT+EiTdqxQJIbRmcam65IWiFSdPVtWtEZuyEc3j5ELBMN0c6EH0ZCwlaoGnG5NRqR+XBDeLh9wq1M2O9WlTKFi8KE1IQQsW2yofMcrYnQw5TiO3k4hISfBkJYSUlNiAKGsZom3RCC0e0z369ufHbGGBBhj5uckO5MDVE/+emGsHo74W/SkYVK2DSEi9yCHBB6060h6ieHbgg9rF78drPzx0TI1xPkhJHEwgvh++2ErvbEGMdPhTa5o4GEdWM7HLqoPV6WEb0Qlly4UuhqDFuO3NkwnPn9IMKRF8J2wUDoxtOE2b+R0E20CIefQ+i2HVK3E6Y8tENXuyhNMzVtd77U0G1z1acBsgdf6iYemgjjCxeE5njIfDwoWry66P+GMybClqs+TSt2O6GHPo2rfmnmYCCMvRFNYRxl7pe6GluA9e2EL+SzJZZ+KRxbkFdTy9ii4YZwdPvY4oV8MtFKeHWqFANcGpshGuO7mMXwMHoq2+5JvCDT6Iniv8nH+MUSZZSreZr+7WP8NPGUd9g6AqZybUIj2ky2uZlr8zJPI9bcEJpmMSieeK5tZVlky7rwcayHjVGim9lEWTI/Z25LOF9qXYDKuvAArIfTJULPDaF1aSZHNueNH/w5t8M9+Zy37GHOm6uQNwe7xSfCdQvL91DHlLzgqidCF8sHdguIpz3NzoBTm+U14kVudb+Jl0Vg8nBhtzJzXAG+Ami/CuxihdTTqQRhTk44tl3IjzkjRk1dbp2Q2Jl627IvfhFXlswv2ydV98VeXsc3d2Z0QuLp9oynXbTCjPRVgvWFdfzjXgx7wHzx+9JeDOaDdC9G1dOmKK5HGpdY22Z4rKjx+pK27DeBn3TquYv7FxmKrNwwe/C4iZa033ahGR71z3SC9gzpkHQ0ml9N3gwGjJloCd048LYnKiTOyYb5QDF0aMx7nWLxaX2yWtKJRDSaSCQiy9WkPo0bkGJt42Y/0n1tXo9aigQbaJHYPW5Cvm7ZfBCLl6atxaLebtfri23rrWTko+LtyMqAyIyJehsem6G634SsmuLd7ng7v7LZsRaL5+I8VaD4eDxufgHwKzRtRJSIlvY87y+FAygSPrBu6ES5ep6Ori47ERvxdeRujYjJT5KSMx4Gh0eJX0TVFB/91tEZr+jKPKh10Hk6IIpPSPENAj8OFM8nSYm6ptCE+oOdnpYuFuxg7E34PTmefIuusHVEksULMPJ+fC19uG7B1FAz4Xn1njYe775mxDNiYoXtAWtcf7myDwf0rp+Zgf5MM6EOaLsh7zJiaUKfe+IaYrJ/LW8RUPzIrSBePP93LkbWWmFusTwdDFm4PKEHERNmRDWRibM8TCTqSl8L+hntyIwOWHd5KAilMTkh0jri1YyFKV8OIHKcc10BynnfZe60OYFOuGmDGmLJBtF5MgPI/qRRLjsekQOZ816o82iXjtwCqFoxeg4a5yrwy+mApW9JXBzOAaNjsuezebHTjAVtSGfh0oqRM+LpFxwnv4HsyxFSqBeHuQxtB4Z2xDXSLtx6DhhDnJ4QnRIz+XaW++J5fKSutvl5dWpFNkkHiHUOGvTybESHzJqephFN4i52grGsXMc5/IQXwHPQgNEU++xSkjS272PWiEvHLtYNLG1EByImJjdX0aNQ0KDzy9W39jMMtbdF9KFLqour2LfENZ52bJVf5m0tiBJGZKF+GYQ+scseAdtifjGJrvSDxDyzt8uu5WtukwsD4bX+fDF+FS0W2mZANeuM9FHbN0dVdIOQprCsrLvNYW2s/o2Bky/AMVQRIuo/lbVB9Ds/jTnHUFjduq7nVStBQPhIhpEtw0iN3X6kgNOVZMZvny4mCyvd/W4sGRhjcJBcTKxKOKIlf5jPOYbsTlqu8RxDRbpoPJ/OJ6WPYVdxvJPsiIquXxsNx4xhrg4iRovfetcvuzd3rPzOEwXH+qbB2kjL83kENHgYPtuAeIA0URSApjzUjImGSkV6giEyRncDZK8HKy2CI2EjIJa88a0YKX7jgElpX3V5cxAASvcDZ4x9G5J68iaPevA/6Z6IjxPBWp8ehY8C3zZeRbO1W1ILAmhHPF8bj/KWYv0/CUO8R849LG+iOuTVAakVbdgNk5S6bjYa4YwZpYblVeLfVvREH/FDK2ptkd3d5YqdFy1rYRWLgzkUJvC8iTs324wsdmxiXjX2vUrg68PJ4cmj3in3ZYgTjtUEVPX2AsNEoojFCNgB8XaxDrvGUkPG4a/jJ9izx6Tad8tfquagRb+f1PO0vUGnjoWJZMPNCQ17RDyNN0SM4kOV7Cd8Ao/nYp3EhfrwHWJVVA0TFDb/9+Fmm9gFAXmomw32diN42snkUGZT8/slgxZ6XTxMoCzNxZIB0DOfioinujNn1tzLXpfTHCXO+oYwEcHDhE+A5syarZVhLCXV7lZHVXEbrSsTKxjDRPJD8QdQzean/y5K1IpNvkqxO98bxA1OiLF/YJjAq2jDQ5SwIII9lk14uoxqs28PuG9GvRvBGiaSDX8vgGD3embN3HT55zT79rjrH1AiyCJ+cQBZrhU3iFjGaZTDf8s/ChBW1IZkDRN+A6JZPCztZGuZ3/IPvPVJmkJA/8OEUYZ0zLntcrmVpAfxhUKVRaR4jzDhgBiDiP9XeRhh6N/F1NAG7wGo5g3Hmvqi/e/jAEP6nV1oDcz/NqgJO9PY+P+HAoaEsaQB3vGKQLZ76uY//t61c1y0y9LsK+LxypAnAEJEVFF9GU04C9128YTLAZFQH9XLgJ5QmW5Dmj2DD6lCsFvCs0Bq+GAfg0m9Lv7egJn+5ok3AnPc7M6XrbLPvQ8YSkh7nHpyFABrQXj2DetceeDh2pUrkucvz+ZDEnu3XrviLJBaz37C3eohdDv3fO377YAgXO1XnnZdtVlcutevuluJuSZW6c/SP6GGniWkZ32Xq02OfKnDQHyuC7VKCPnFCBDfk0OEvQS1A+D5VjJ0XTz39BBxQVz6faekPMQOEE7J83L5J9pPk1j+6iq3WRJaTxnt0j8kQDhILPfmIyV1dYuCCY/NKKNhr/xj4oOjuLQ4mHerMulOBcCycrXbH4TSP7p6GiWkuc2uDylZx/0m6qaalNLt72YQ74d6l4sSRKGyGezmh7XMnvYMAQ3stF9Irh7mu8Gmx/244EcoThBELlSp9GbInuhWqwyquSlZUarIbr1KJcSJ4l9nPLM4BJouv7y/v77+Rnp9fX9/KadFODD629kCBQoUKFCgQIECBQoUKFCgQIECBQoUKFCgQIFc6L8iyRsqPfrR9wAAAABJRU5ErkJggg==;" parent="9NRVor-_VpwXLTIwyfvW-11" vertex="1">
          <mxGeometry x="5" width="50" height="50" as="geometry" />
        </mxCell>
        <mxCell id="9NRVor-_VpwXLTIwyfvW-7" value="&lt;div&gt;radarr&lt;/div&gt;" style="text;html=1;align=center;verticalAlign=middle;resizable=0;points=[];autosize=1;strokeColor=none;fillColor=none;" parent="9NRVor-_VpwXLTIwyfvW-11" vertex="1">
          <mxGeometry y="40" width="60" height="30" as="geometry" />
        </mxCell>
        <mxCell id="9NRVor-_VpwXLTIwyfvW-12" value="" style="group" parent="WIyWlLk6GJQsqaUBKTNV-1" vertex="1" connectable="0">
          <mxGeometry x="180" y="560" width="70" height="70" as="geometry" />
        </mxCell>
        <mxCell id="9NRVor-_VpwXLTIwyfvW-2" value="" style="shape=image;verticalLabelPosition=bottom;labelBackgroundColor=default;verticalAlign=top;aspect=fixed;imageAspect=0;image=data:image/png,iVBORw0KGgoAAAANSUhEUgAAAOEAAADhCAMAAAAJbSJIAAABpFBMVEX////mYAH4o3v/5tXvXSL0ai+FLhv2hU/HTR/V0M3iWR7lWwDmXgDlVQA5GRP/6trUVB7kUADq5+bxrI3T0tH5pX74nnP/7d3wbTW6Sh/7w6h/KxtvJxeDMxuDKxj1YCL92wCMNiLERhXkkWzvlGyVQR3rWyL87ebmaDT/5QB7KRB7KRv0Zif65dx+GQDuTgDe5uN6AAD1x7XpeD731MSjPx7voH7rg1DnayLsjF/2upv5y7GBIwibRzGuXELobyz42syTNBybsaz0s5L42s2nPR3SSQCaW1DEUSbVWinYw8D//O795FMeABQpABPXeEu1i4XOopKpbFzivq3yeEyAIQCodW33oIP2jmn/+uT+6HgmAAD+9cgxDBNyEwCSSz7+7JSwgnvCoZzchl+fTDXDk4O4gHDJmYm+OwCyTybVjHHkrJbIbU3amYFhAADoybmaKgClY1LbdFG4WDnRZkDcsqj+52z+8Kv94kG/t7AAAAClig1KMzllSRHfwAj+8rbJqwqHPTGdk5KjkWtmVFF8YRDVtwlCJBJVORLCsKubZlm0nYwTEEZnAAAb+ElEQVR4nNWdi1vbRrbAbQzGWFZs4diKrWBBcA3EYOIHfoAb40ucBNoUKCFk2y1pQpLmuSTddttub3eXe293b3L/6TsPSR5JMyPJCMye72uKbVmen86Zc86cGWkCgbOXpfXKanK21ah2gkianWqjNZtcrdxaOodfP1OZqyTzHVESgQiCEIsFdYnFwGvwriSJnfxG5d8SdK5Sr0I2oY9Fl5gAQav1ytywm+xB5rJ5QXJms3BKQj77b0FZqwcBnQe4vgDKYL02bAC+VFrigHR9SrFVGTYGSyqtQZVnU+VFhFyqn1Z7ZkixfrEcbLYj+YenQUqd7LCxdJkD6vPiN91KDCjyIjjXpbzv6uuLIOWHbaxLjTPkw4yNYTKeOd+QGeda58CHGVtD6Y/1c+LDjPVz58v6GP1cMYrnGztuNcVz5YMiNm+dH2Be8iP+xTyeJCblz4mvJvhgoDFRaja9ZgqCcC4jj5Z0er6g0ES5da3q0dql1pnzrfuhwKBoNLTuEVEQzrg31gdWICrNaCJW+2fMe71iZxo45joDuFBYiAEjq2a10Uqn6vVkvZ7KkwHc8ynFzpnF/5rXGAjhgo30RrYWkoHEdZHJs4LM3aNTFcQzcjhJTxYK6cbr2RACC5nFpIO5bL0heKtbBaXkWQA2PJgToKsm1+KyjY1GGALHrSUbnmoEYsN3vrmm698HCmkB3THoKIRQ4nIo2xLcQwpNnzvjktvYDAbmLag8Jh0U06ll/V2oypbrJCAm+jqmqrnsgoJUXXXCsxKSRwNNrlbdjlkkH/1NxR2gKI7UnPF4hAiyNiK66/KSbzXHVTeAMTG4EXKD50AIIUMbQVfGKq36A+gmSsTE5qor9SGheBqrIlebbhj9iRpuAD3xWQgD1EMQ4/kgugAUhA0vfFZCxlfj8kbM2eecHtEZUBBH3PY/o/Hm35BZh4VGnAPkaRGdnYxYrbFayBbTb2ydrLPOINfGHU31dO7GMUwIwqp3PrOZ7pRzpWchlpnLq46mepqg4RjopZZXA8XST0e2cvvhcLhder+7FpJpWXo85FhUGDz0LzmcWhCygygQivYLH2ZKuTAUpX1bkqL38/Vkdm0dj7T6asw61RWkARO4OYcuIFYHU6CmxMmtB2WND0hUEwnK5p3nu3tw3KWr0aGcExMHS8Ob/JArJQdVIGz0zky51NbxlG7UkHkgm9fb+6Xyp8/39O4pO1RPhOYggA2uaQixtVMAhuLH5bAhykrUJFc2P4ECemfpyz3MKK/xLVUYoAaX5BqG0BncQrFWvisZgJmCmTCaCH+CZSb3Yh5nS/FQh4soeg6LfDcqtk7HBxGfl6gKhBJRwuEZzLgZleaxtcRb3Gvu1aHyvYyUOo2F6ogfDxXAl7AqEEhGQfCQcH4eeJ9Z9HNyin/VvXkbrklIGz4AghY/K61E7HjRaGFFN+Cpl9DxRKX7+AsbPESh4wWQW4kWB46CVsRK5FomE0kkrIiK0UUjVxBidB5/Icttl4dS8TrvWolrp+6DusRDr15kkEQiAFRDLUQMwnABhw/wL/rR+BoPUXJf8OeZqI+AIZhav3pxLWOWSLFYVDQvq0fIqPS97IwouAVscQj9BYSModdvXpgou1exFMOKkQUAd5N01qLgcoKRFyh8BwyhAlvl7ZvMC8AJQXtXDekmSMT1kCOiy5DB0aCU9R8QNTsuy6Fa5fXbV29e/gnIISYEvIk+4kPs4OJZjgZc2SlnusunMMHmjMNRxfrxj88+XgWUXdQrNUSgxBo+jBc0hFlnQM6QSfQj0LtDleX13TvYz/YR89rPy5xg5mIgxR5RCI1zAtQw5dob5IAShhL1j2S2L4w5jjLYMVXonE0f5IiMw6WuRGlVb0GcnXM5rrth6z923nwI8VrfTg1fA4XtLEQ+YJ35TekM4oQLifSVCMzUaEJ8jekuBG7yNsf8nlg/105okLwllFh4cWx8wPE2Em+QwezBQnUogKHQ+gudsJDoHu4S9akqs62c8T47UghnjmIsYzB3BvkNJCxEE5muEm4/I68zu0OxIwazNHNWuUxIC/Px9dpaNptdXc3u7R3X1uP9cqL8bL8LRFFgLt7+kiBk5zYCc5KfqUKhdTY2CnO1tWT+/tgyFFhHXF6+/eLdYenk/fPdvXVYTozv/gmkb9pYKveebAc7KjKVyFThWQQKoLraxkPAJqnqKCmqWoh0c9f3S6UZWE7chTmqQiMMhVjJCUuJTBWKq77bqCwfv51fXjbBFRbHsCwuqtFMTgnnYDnxS5yEI8bclybC+CrLnzKUyEq5hXGfbRRo79lMqa0Uw91eJAooAdoVq4xtdlHXy4XDU4gRvnhubgnTn9IHisxYKNZ85tt7X25r0xVKeOqTl3fnbXyIcf7lFDqqG5nCI+L2dxZjqjGVSIuJrHRGGPFThfH47owxW6HVRIG8nNfsswAEWSuCnH/5yQy8EIkIUuPhnoVQHmE1mpbYsC6Hn24mLu/mdD6INzMzoxXVlG5k1OxxQMcEnLDAHw4XMyoc+r+zn5HlbCjZKWtQIW7452bkvb7+bKIovaiVcRR00bvgQoSVFeB8Mm9s1hTfYDXbPsTo0K9GLOibjcrr78s5SKKJnbFIY1QLK0CNSndUvW01UnjSIKPdtvowK1T4FylAZLuudLu9Hq6o9Xor3bCNs9grUBgjU5/MKOGC+tA+HcSMGLaAwfAzsaZPKoyHbr5IFFSLjEYjvbCJUlEyFMRodwp02II6VrMhyoyihM3XsMzZJxXKa6q94VoKk+iZGbsJyqEr8JCCKtlmLZlKtPiaCsuT+qNCOblM58OQo5EuyVikqTFTBIFxdHTZNmkiM1puWSrNSGJ9cqRyngeIuxrJqHTtHkeNFMH76uiydXI9zpjLtQwTWX7GD76Q/NAJEBGEScaIzaoRYo+CGGL5GhdGKqSdVWgftFo+luWHkp5To2RlPpFIwCm1gs0Qif4IUoAenJCKEp8nAGLGjhhPMwyw4mykklNGCoYIP373bHePsaQpDoZ/B+Oqxjd/9y4BmkDtN1GqhV6R1KOyEoEHmRCL4OWyZR0WY6LFZKb0Q2IOxZl4CAwRSm24MuT9nj3dkEOrD1V1UefrFhWluDJPQEYTFi0BhozJrYbhxGKkYNIieLVsrvvJVXrAIMyUkaI7hAp5d39fz8Fy5ffmaByX1yCeQbNS1NKWlStjJCTSUl+TiUTXnOYQiIUoQgTeZnTZFBdZAYPwpoxwz/cz8vMymWO2bxO/Go+vXiHwxu4WidTs5ZhJoCIjUR0wEQEj31KpbKwngp9G8KfgKOBuUEpQMLeF4Ub6QZ/6uUN1Rl8tkmujsZ6SSRiIcXl1TCUY5nEkAClbEdveXQZjFM50r5RmPkwGJrfu4DVF3X5fVLtR6I6K4FD1vouKTSyoAzLGvtzZUHkXAeZK+x8fPCrvh8OgbZtaeWztPsk3linijBOY56bG2L1CZYSAids7WrO2yn07xTqOgk6o9mBUHJUOTGU3uhKNcTDjc4HbCxHg/skWOsNOOQPbBuvi8VBeJIMDVqDS1VzMJo56xcwYhREBvjVMa6JsVWIkDDWJcp5lssAZZ3QzfQhFL9BwjVR+BrvJ/kejMbdR66ACx0g+rQeSQD1NjfMWRgyY2CRc/M4+Cv79nqh2VwBcGNrpqEQ2h26mRrmG7mtFXhVYhp0vd9JvzDFEvP1aHhFNzcYKDJtomGpEF4kM05Nli5mORq8C/UWL0E7Jrsgy0xi/G3JMNH4MjbQ0QbTme9i+7809cBMlKcqKBUULHRZwzHjbVEI6gU6sRxCCBDwBjPUq1OlyklABtyPSUzZuuI/vAvvJhcnGVKASF00Wiu2xaPGcGD1MVWM0cZs8Z+BjGx1FZjZh2BV7YZi1LvdTLkbQ1xI3ejQUkjwjhd2w/YBszNztRNTU2ivaaMGqKCx6AEFOdXERjYfh9TET3oE6LF4lCEFABNm3Gs6Y7TSepEPgiMjA58aK55DwsZnQDLipIVD5xvQYAjS8qIpXDrKVWq2SvC8uqqaF98hhF6+CsB+NqLqzgalptAj/Xu5Pe9NX2cTwLdWMbsiLFXGkwztkY5YMF7MIpYe9SY9gmu91VwiLxZegXb5JPKVtLqkuH/TPuYUIr1692osUCj0NESRusD+il2q/RYyOiJpGJYxxS/nxH5GnIQkfoi4IFKLePzhIPr8DUnJzF1wB4waFzGeAGefKH0lvBSW/3J9WUXIaIfQs0RVVUyLM29QuTFYlfQFKSB6nWiJyNXRHI9S58X4d+vHSEwIQOtFF8cqqUeKaeFAm7NbITJXwpvHmO2UrYJPs8pim1O+vrYBLoqD1XyosA2hKVIqALtozOZs43Zug5JteU+VGQ3DJHsHK5zvDvhoAUBUPzBW8uXG1r65+jl7Uo4dKX2hXWUbturUJvXOviwjBmB9YZldXInQ2GahEw9kwIqK4EWBlNOI6DxCaKRifJm4vGRpcpK0lT+LOeVdbTKno/0dqVA/sX0ByoIqzRwmUJcHBRhHOrSkILYzGURGUfI+iPMcYKq7TTRFeRHqxO+ZQZJP/jFOQV7eArgCgSNdHFiKuYLeqZObvarUYqMbFhwzAQAB8GE3ogJHIVWDhCjLKcBhFfgW9wgFkXl8KRqPAzpTuZh3nDGv4Gt8GIoJ4xlr2eKBeCZNutafovVFlAgYqKgz+OmAEjYqR2qJFJarC4QXsiaOIVs/AGa4GVk2prtS5BhWv6GYUHVu8z27tD9owedPicg5/ZH8nAA+ManwRwAQRoSuFA+CECnwNURm/oi3KpNejJBjHqOjOhVKAeNsZUMueicCP42Bun/OdwCp0UZgvoeVqqAaFBsARVQUvDUJNiYxZKHGJUaNxcKUYMXQEGfmAgcCDtiX/nEcjyye872whJxwhajRwoKhiRwoQe4rSL8HhnshypjVGOHQ3sy3X6j8Ar0Br42ef6X9NlJTNMZNcAc0tT9oOJOQJjqTEyDAK3KmuzmImoYRX+krE7pShqkqAXqdyWeyOy/fHRPs9AH/4yzSQz/+IX+1bShZAwjmc8f30MzzwW9sJHkfGDMSEgYiUCLwNGI8BzH6NUYuJdJDVAD0pdwoWuhIfLi7aw8S3P38O2r2wMP0Vevlw0UY4hoz0s5/RlViYnv6D5QyPsOMl63Bqooh6Iqruo6G/YaY4sZGpvlRIBmZphC6nDeUkCIS2VQ8//T0Q+OWv9y79ujD9F/g6q9oJRWikn4P//vPevd/+tmBFLIfH+krUuiIgw5ap4ojTNcxURdkpfSJRmKUX9J2q3ZqNroF4fs0K+Nk0/PfrS5e++G1hGhpqjUIIg+FX4EoEfvn60jf3/rHws+kUk2VljETUQDJXNXWiqnGxXyxfRpebOgoUWoEG9X13S7qh+Z1YCb/VCS998Stq+ZxoA0T5DOp///UNOPDe9PQfyVN8KCn6uJmsF6s9PQriMqOhRAnGNpm6aC3WoI9/hbyLeUO5AQgzd6yE0wv/PTn5P5egfLGAaJftKlwNBP44/bdfoArxpfiKPMWDdt/9EkocVVe0P6JFk5migCFTE2yQtnUobweFERfhcANan7mUgQm//hq1G+jmb6iD2T0NTPJ+mv7HX7UDv/l94XPyFKUwEWDI+aeC9gfyNqSZ1uQ4Y/VQJ9CkEvJHhwgQda9NcykDE35z6ZKJ8L4NEbonQPiFdpyFcMtEuEnYqSHQ2yiZ/ssXh4eH12gkwSZ9zsIF4Tr6+ZX2jpXw54XfdcRvsJXawwXMh4GV3tOOs1gpGHsqRP2KtNM+U5c002hkaqq4Sa/7Mgh5hTaswh9QsxW7Dr+d/qfW8nu/YtUc2AgXsbJ/0y7FFyZP83EfuBEiS0jQlIhyG/3PQiTSnfoztb8NTCi/R62eV+z9ELT813vIQ/6Oo4WdEGey305P/wva6Tf3/jmNo8XE48c7d8qwRqqQh1OVCEdSevcEH/c+HWes6hqMUH5cwH1Eadt8KTC/hX/+du/e//5jQcvHktaAqA1+Qcr267/uffE7iPh6crqD+Cxl8oR5slu304i+KgV+nhn3SMjvh/LuC/zbGYU2Cvo7StkWdMDA88wmmZpuruRmcO/9XDuOSGkmZ5AKzXVyuhLVHu6I6AI0ACHDSgfwpfG9fe2ngUcrfcBNm3hyxygMfvYtzDe/0tpdaitKsZvRfMddWFLMlR5hdcME9uefTNfnEUAsmnVOVyLwNtjLRCLXACCDsDlAPIyvH873CcOlO48fPzgpl23JjSZPtCcLgAFPJtPVF5SUKXVETXI55Z2l59KVOAqXchQg4A/jTMLOIDnNlDGgRTlwrt1u58o2n6oLmgQ01dqglNiED9qlHx/qs6ybPCVqXiZyFwKOU60R5DT0vJQzOyo/um5cW31tSK78gdngD8YDMHSBlZuytdbdl3D7YyCwpDH2uErEnRADMggbnscW8pdtIt/AhLn9SWZ7A4F2Dq6uMNZt7JfabV6ZZquEx/+YMUz0RHtMxF5mnEMIxhYex4fys/YnhNtHvj03w+GD0/Htk62tR5qxlnaQHbLLNHfK+mdLD5fHild4SoxqbhQJDRCOD72N8eUfD4u6m1lU1QM4y2aeC6bIhzL8F812ahNW5Tbnenzsv1h6cz2hWYtpcZQmfS/DJkx6q9PEj0tTKxqeeAALNMD6zHPBNEFWN1Hqe5gTtp+ZeUS++tj+HvfHKM3XwPcMQEZFeNVTrS2+vj81pWnv1iRqJfAjuUf0tlpkiyBkAz4xWfxkuTQx93B5kW6mfTfKIax4q5dOXZ/KIDykCO0qm+cRmfIYWSmnAyIk89Xa2YdXZAky2n0N6WWAMKaya15q3vL761PXNTwgWtA+yTm0WpN96E7bnEgPxRJ0yprOoV9FSiSW1UbNgIy0VFxirDWhzVvIz4GNPp00ZOYE/W8ChPuJSZtQWn9SYuQF9m9jAWovbeE/jxvavfkJYlLqWpUgpAYLNM3tdu5J/q49NTV1/c7lCU0+lnbQ31vt9iPjTV2oAfI/btA1Z/2yJjBXKG3hvy/fuLkCBK0eMmRz3JEQjrVdzh/Ke4dTUNofdZonpdIH/NeMxkoIlcQj4Qzw0zPaiS9/2eMD0oMFunXG3RwwjBNY9nXEy7lcTmvLo7L/Orx8B61owT92+fk7G2DEBEh3pWgO2N08/vr1qSkL4uWd/dyJ1poHVjs9NeHlx2i5xy/4xTNHQIYrhfP47tZinLSvG3L48TKWR+2S8gv+88OTyybxQjh5mSKPy8BEStov7bzr9XqZayapmgnpYye05oHuTGOmqnc8ezRLyFE9iQW+wH9tJEl5++qVB8LXr14lbYJ/UHuRh3/nzWIGZLlSNKviYv1sPDviTY62X7sn3D468nj6kZFU2kJIhdBufmKtazMRpr01IH+0Tbmd+v+ohK8HABwZsRDSIbR1bS7WJnomBEq0Opu519vbbymAt7YHAbQS0mOetjaRsb50XD4l4Q1CY3N7s8AW80dHNs0uDQZoJWTEe7zS0cUaYe+EI9vHN6As3bp1vPf2aFvra0fbb80zqscuAVOzfELGXTPajzmv8x6A8OgtItzb3oZ0R3oDjwAjMfH/atvactbpDi0HmgkZ9wVp67xdrNUfgHAEmumNG1sAbzZPvA0sFfTHyvFkYBLyuwScPczleIR0IzXW6jvfbzEI4cgRJJygfBEE1O1t9KFbwBF4Z8AMh5AK0L/fwvmemYEIR2Yn6ISogVC/LbdnQgXI3KcpFiHr5jWjz9OvAGGmgxGOpPduHLMIJ264PmfqU1yKzD0lENPORho07nti3rt2Sh2CZqSZ3+N8ZAV8atwDeLOPaCJ0vGHd8f7DQQn9kNTN/k2Ah28MxLSzkZJ3czvdQzpEwtSbwz5h7vBIR0w7Gyl5q7PTfcBDJJz99OlT7QEo4ZmnTz/VvW/a2UjJ+4Cd7uUeqpWmDE9zE/ytv512VKHpXm6n+/GHSUj40pvEm2knFZrvx2c+U0EbYFxoQsb8veWZCswHLskXn5DRcusWgvxnm1xkQoYKbc9R4j+f5iITMlRoez4N/xlDF4WQkrUxoj3loXTc50QNlxBFDCTEW2m+Cu3PiWI+gwfNQg0zp7GIhZDZCylbJPGe1zY8wtTN8Awp4TdmQkajqU8Tpk/o42fuDVGHN3Nm0XPvNFeFAm1TFt5zE4epwxmeDlmP3KM/S5j57MuqfFH7IWvky9gkgfP8UnnIvpQiaU6kYD6ElvMM2otJyGgu+0HCt9jPEV67iIQsG+U8DJqpRDGdcv7N85U020bZz4LmPc972EA2STNtlLsDBPP50bHmRVNimgnI3YON/Vx9YfxiIabG2Y9k527exd4bQWhdJMQUew8P/t4IvP0tgsOmIiXN3pvRYX8Lzh4lF6krpth7xTjuUcLZZybWuSiIKVbC7WafGd5eQRfF23C8jKtNV6kLvzXExkVATHH2D3Wz3xN3z66L4FA5btTt3nK8fdeGj8gFdLtVJ2dfMjDyGi4iX4Oud5Tl7X84XMQU7+q73/+Qv4flMA2Vq0Eve1jy9yEdHiIf0Ms+pA57yQ4raPDChNe9ZB32Ax5O6OcF+qDn/YAd9nQWhpDApfjbVnvd09lpX+5Y85zrGqk0f6t37/tyO+2tHoudq79JtWJcwEH2VueNMvBJz7EzOnTBoOA8oqAJ39vA046cD2NqpMkHjHn1MrpwBlL4xOdjqU4W6m7IRBe+Q4Vq7Jy5GlMjfB8aHMSN9qXihBgLnrEaUy3GZkAEIGUy1L2sOiECNZ5h3EilHRUYlFZPAwjCoiNiTKiekammRqqCkwKD0gCB0CsiMKNGyn/GVKrhaKB+ALpCDAqgO/rLmAId0NFA/QF0hwha46ceof5c8PkE6MbdaIw+9cfUiDu+UzuZvjgGDY0xVk2fWpGpVLrqFOF1wFOFCbM4hn5NYkITKHJwSPDVRtPZf+LfOk2gt8uS6O5nkSJbqYEgwbda1Zgr84SA4sCpGl3mHJJf8reFYLXlVZPgcIjn9jqCtH/AZJsjDYehhhkSmGs+5U6X8LB0oyO4xwMDXvZU/SnEVdQgKWOd8VbauqbQypZKt8Y7HpSHxK8oYZWa6NpSDUoh2Kk2Wmnb0iaInW41qp2gJ90hEawLnP2TuY4HS+1jAk5A0exUtRvMq9VqpxlE73qFgyJ2/O+Cfal7s1QLKSGDn0byVPj1LrcEr5bqrwjC+tkCAmmdQo2nFmmgmppXqQ1NjYJwZi7GInnpFP1oYIlJ9FWjZyK3moM41dOJ2PQweeaDZD3HxtOJ4LxOxnepS+fHKJx1iKDLXOucGAWpdZYxnidLjXNgFKSGz+Oki8U4ZD7EmD9DRkHKD5sPylxSdF0B8CIxUUwOq//ZJNvxXZGC1PGx0OSDLNVFHyOkIIr1i2CeFqm0JF8gBVFqXSz1EVJpAU2epk/GgPYuLh6WWj04qCqB8oL18xo9nErmsvmY5E2XQHdSLJ+9MK7ThcxV6lVJcmGz0C4lqVqv/DvRGTJX2ch3RMAJSE1lJ1Scgm9LYie/UbmAbtOTzC3VKtnkbKtRreK7zZqwwDibzFZqS+eguP8Hrt3Jg+cO+CkAAAAASUVORK5CYII=;" parent="9NRVor-_VpwXLTIwyfvW-12" vertex="1">
          <mxGeometry x="10" width="50" height="50" as="geometry" />
        </mxCell>
        <mxCell id="9NRVor-_VpwXLTIwyfvW-9" value="prowlarr" style="text;html=1;align=center;verticalAlign=middle;resizable=0;points=[];autosize=1;strokeColor=none;fillColor=none;" parent="9NRVor-_VpwXLTIwyfvW-12" vertex="1">
          <mxGeometry y="40" width="70" height="30" as="geometry" />
        </mxCell>
        <mxCell id="9NRVor-_VpwXLTIwyfvW-17" value="" style="group" parent="WIyWlLk6GJQsqaUBKTNV-1" vertex="1" connectable="0">
          <mxGeometry x="350" y="490" width="80" height="60" as="geometry" />
        </mxCell>
        <mxCell id="9NRVor-_VpwXLTIwyfvW-13" value="" style="shape=image;verticalLabelPosition=bottom;labelBackgroundColor=default;verticalAlign=top;aspect=fixed;imageAspect=0;image=data:image/jpeg,/9j/4AAQSkZJRgABAQAAAQABAAD/2wCEAAoHCBYSFRgUFRYYGRgYGhUcHRgaHBghHBkZHBoZGhgaGBkcIy4lHh4rJRwaJzomKy8xNTU1HCQ7QDs0Py41NTEBDAwMEA8QHhISHzQrJSs0NDQ0NDQ3NDQxNDE0MTQ0NDQ0NDQ0PzQ0NDE0NDo0NDQ0NDE0NDQ0NDQ0NDY0NDQ0NP/AABEIANwA5QMBIgACEQEDEQH/xAAcAAEAAgIDAQAAAAAAAAAAAAAABgcEBQEDCAL/xABCEAACAQIBBwkFBgQGAwEAAAABAgADEQQFBhIhMUGBBxMiUWFxcpGhMlJiscEUQoKistEjJHOSMzRDU2PC0uHwFf/EABkBAAMBAQEAAAAAAAAAAAAAAAACAwQBBf/EACwRAAMAAgEDBQABAgcBAAAAAAABAgMRIQQSMSIyQVFx8BNhIzNCQ1KBsQX/2gAMAwEAAhEDEQA/ALmiIgAiIgAiIgAnE4JtrMr/ADo5UsLhLpR/mKo1dEgUwfiqb+5QeE6k34AsGRnLmfOBwdxUxClx9xOm9+ohb6P4rSiM4s+cbj7ipVKIf9KndUt1NY3b8RMjQEosf2K6Lhypy1DZhsKfFWYD8iX/AFSJ4/lTylV9mqlIdVNF+b6R9ZCZzGUShe5m3xOdGNqG74vEG+7nHA/tUgTAq46q/tVajeJ2PzMx4jaQbZ9iu/vt/cZk0srYhPYr1lt7tRx8jMKJ3RzZIcHnvlCl7OMravfbTHk4MkuTuV/HJYVEo1RvupVjxU2/LK5iK5TO9zL2yTyx4SrYV6dSgd5HTQcVs35ZPclZZw+LXSoVqdQb9BgSPEu0cZ5Nnbh6702Do7Iw2MjFWHcy6xFeNfB1UevYlB5t8rWKw9kxKjEJ72pagHiGpuIv2y3s2868LlBdLD1AWAu1Nui6+JertFx2yTloZNM38RE4dEREAEREAEREAEREAEREAOJo85s5sPk6nzld7E30UXW7nqVfqbAdc0uf2flPJq82mi+JYdFL9FAdjVLbB1LtPYNc8/5VynVxVVq1d2d22sdw3Ko2Ko3Aao8zs43oked/KBicoFk0jSobqSE9If8AI21+72ezfIhESySXgm3s4iInQEREAEREAEREAEREAEREAE7cPXamwdGZGU3VlJVlPWrDWDOqIHS3sy+VkjRo5Q1jUBiFGz+qo2+JeI3y4KFZXUOjBlYAhlIIIOwgjaJ5BkuzHz5rZMYJrqYcnpUidl9rUyfZbs2Hf1iVR9DJ/Z6Wia/I+VaWLpLXoOHRthG471YbQw3gzYSQwiIgAiIgAiIgBxINyi58rk2nzdOzYlx0V2imp1abj5DeewTbZ65zpk3DNWaxc9GmnvuRqv8ACNpPV2kTzTlHHPiKr1qrFnqMWZjvJ6uoDYBuAAjxO+Wcb0deKxD1XapUYs7EszMblidpJnTES5MREQATmJnZNyTVxB6C9Hex1KOO89gnUm+EdSbekYM7sPhnqGyIzH4QT522SbZPzUpU7GoTUbqOpRwG3jN7Tpqg0VAUDcAAPIS04G/JecD+SA0M1sS+1VXxML+S3mamZr/eqqO5SfqJM5906TP7Ks3hBPylFhheRv6UohpzLP8AvD+w/wDlMetmfWHsujd+kPoZNzE7/RkVzJWuKyHiKetqbEda2YflufOa6W3MLHZKo1/bQE+8NTf3DXErp/8AiyTSKwiSXKeabpdqJ01902DDu3N6SOOpBIIII2g6iD2iQqKnyKfMREU4IiIASXMvO6rkytprdqbkc5SvqYda9TjceB1T0fkjKlLGUUr0WDI4uDvHWrDcQdRE8mSZcnGeTZNr6LknD1SA426DbBUUdY39Y7QJKp3yhkz0jE66bhgCCCCAQQbgg7CDvE7JIcREQA4nVWqqis7EBVBLMdgAFySeoCdsqvlrzk5qkuCptZ63SqWOsUgeiPxMPJSN86lt6ArTPrOdspYlqusU0utJfdQH2iPebaeA3SNxOZoS0TbOIiJ04czkC+ob5yiFiFUEkkAAbSTsAk8zfzfWgA72aofJOwdvbGmHT4K48bt8GuyHmtez1+8U/wDzP08+qS1ECgKoAA2ACwHcJ9Tur4V6YUurLpX0dIWJA2mx121zXKmeEbJiZWkZuSchVcSCyaIUHRJY212B2AE7xJFhcyBtqVSexQB6m/ymiyFl44QMoQOGsdbEWIuOo3vq8pkYrO7EP7JVB8K3Pm1/lI2szpqeETru3wS3DZuYanr5sMRvYlvQ6vSdlbLOGoDRNRBb7q6yPwre0rXE42pV9t2bsZiR5bJjxV0rr302Tc/bMnKTq9V2S+izMy3FtRN9nGY0RNiWloVsRERidMTWZWyLTxI6Q0X3ONvcesdk2cTjlUtMk2VjlPJj4dtFxqOxh7LDsPX2TClp4vCpVUo66Sn07Qdx7ZX+W8kNhmsekrey3X2HqPzmTLhc8rwE0nwauIiQGEREALp5Gc7OcU5PqnpIC1Ek62Qe0n4do7L+7LankbJ+NfD1ErUzovTZWU9oN9fWDsI3gmepc3crpjcPTxCbKigke6w1Op7QQRwkLnT2UT2bWIiIdOqrUCKWY2VQSSdgAFyZ5Wznyy2OxVXENfpsdEH7qDUi8FA43l6cruVvs2T3RTZq7LSHc1y/5QR+ITztK418i0ziIiVEOZxORJJmjkjnG55x0VPRB+8w39w+fdOynT0h4h09I2+a+Q+aUVag6bDUD9xT/wBjv8uuSfCYZqrKiLpM2wfMk7gOudQF5Y+bORxhqekw/iOAW+EblHdv6zwl8lrFPHk201jnSGRsg0sKum1i9rlzsHXo32Dt2yDZbyicRWap93Yo6lGzz28ZLc98p6FMUFPSqbexP/Z1dwMgUXppb3deWJCb9TERE1naZ2UaDOwVFZmO5QSfSYecDV8Euk+Gq6PvkWQeJxe3G0tTNfJ60aCEAXdVZjvNxcDuANpt6iBgVIBBBBBFwQdoIO0TBl6qttSRqjzmmdZvrpC3Y5v6ibrJ2VqdfUps3uNt4dfCaLPzIyYLHVaKC1M6Lovuowvo9wYMB2ATQI5UhlJBBuCNoMSOquX6uUIyy4mBkbH8/TDn2h0WHxDfx1GZ89OKVJNEaYnE5nEYjTE6MXhlqqyOLq3p1EdRE74ndbJOissq5ObDuUbWNqtuZdx/eYUsfLmTRiKZX7661Pb1HsOyVy6kEgixBII6iNonn5sfZX9jTjvvR8xESQ4lt8h2XbNVwTHUw52n2MLCoo7xom3wtKlmyzcyocHiaOIH+m6k9qbHHFSw4xaW0dT0z1jE66bBgCDcEAg9YOyJnKFH8uuUdPE0KAOqlTLnxVGt8kHnKvkn5SMZz2U8S17hX0B2aCqhHmpkYmiFpE68iIiMcO/CUGqOqL7TEAfvw28JaGDwy0kVFFlUWH1J7SdcieZOC0mesfujRXxHWT5WH4pMppwzpbN3Tzpd32STMzJvOVTVYdGna3a5/bb5Se16yorMxsqgknqAFzNdm3geYw6LbpMNJu9tfoLDhNJnzlOwGHU62sz+H7q8Tr4DrmSt5sul/ETp99kTyljTXqtVP3jqHUo9kcBMWInpJJLSLPjgRETpOmTLMPO2liaYoOypWpFk0WIGmqkqrJfbqAuJKMpZTo4ZDUrVFRQL3YjX3DaT2CebM4cIadZjuc6antPtcQb+Ymtdy2tiTbrJNu688fItW0yDNvndlr7di6uIAIViFQHaEUaK37TrPexmmiJMCS5nOb1F3WQ8ekJKJos1cIUplyNbkEeEbPO5PlN5PY6aWsaTM9vkRETQQpiIidI0xITnhk7QcVlHRfUexgNvEfIybTDypgxWpNT3kdHsYa1PnJ5Y7oaDHk7bKwickW1HbOJ5p6AiIgB6Z5Ncpfacm4d73ZU5tuu9MlBfvAB4xIryE47+Wr0SfYqqwHUHQfVDEztclCnsuVdPE139+tWbzdjMGfTtck9ZJ8zPmaETYiJ90k0mVfeIHmbQBFjZt4Xm8Mg3sNM97a/lYcJvsm4fnK1NNzOoPdcaXpeYiLogAbAAPKbjNUXxdLvc/kabK9MPXwj03xGl8IsbG4paKNUbUFBJ+gHadkqjG4lqrtUb2nJJ7OoDsAsOEk+fGU9Jhh1OpbM/fuHAa+IkRkelx9q7n5f/AIQxzpbERE1naYiIjEqZiZQwKV00HHaCNqnrEiONyDWpk2XTX3l1+a7RJzEhlwTk5fkm2V0mAqsbCm9/A31E3eSs2ySGrah7gOs+IjYOwSVREjpJl7fJOqZ8gWnMRNhCmIiJ0jTERE6RpifMRAlTK7zkw/N4hwNjEMPxaz63mrknz3pWem3vKyn8JuP1GRieZlntto9TFXdCZxERJlCd8meV/s32jYNLmPy85+8SG4TEmne2+3pf94i6O7PnG0tCo6e67r5MR9J0zcZ34c0sdikO6vWt3M5ZfQiaedXg4ziZmSVvXpD/AJE/UJhzOyKf5il40+cafKGj3Is+ZeS8ZzFVatr6Okbdd1I+sxJxN7Sa0z0XzwdlaqzszMbsxJJ7TrM64iCQjYiInSVMRExa2UaKNZqqK3UWUEd4vqhtLySpmVE+KdRXGkrBgdhBBB4iYOV8qLhkDMCSxsqjabbe4CdbSW2SbNjOJHsBnUlRlQo6lyFBuCLk2F98kMJua8Eq4ETDqZUoA2NZAerSX1mTSqK4DKwYHYQQQeIjJpka2fcREYhTERPmdJUxERAjTIxnwv8ADpnqZh5r/wCpDpMs9z/Dp+I/IyGzzuo97PU6R/4S/nycRESJoN9mvko4nnPh0PXS/aJOuRLJi1VxTuNV6CjvAqFvmIk2xtGh5YsBzWUne2qslNx320G9U9ZBpdXLrkrSpUMUB/hs1NvC40lJ7AVt+KUpOw9ycryJ2UKhRlYbVZWHeCDOuI4FrYPFLVRXQ3Vh5dYPaJ3SrsFj6lE3puVvtG496nUZvMPnjUHt00btUlT9RNU5p+TVOda5JrBM12RsrLilZlUromxBIO6+q0wM8cWadEIpsajWPhAuRx1CVdpT3Hapa2fWMzqoUzorpORvW2j/AHE6+E7sjZeXFOyqjKVXS1kG+sDd3yvJIsyT/Hf+m36kkJy1VJGfvbZJs4sYaOHdlNmNlB6ixtcdoF5W0m+fD2oovXUHorfuJCZzO91oVsnmZr3w9vddh8j9Zqc+CecpjdoN+rX8hNjmQf4L/wBQ/pWYGfI6VI/C3zWPX+Shd8miyT/j0f6lL9Sy0JWORlviKI/5EPkwP0lmzvTeGTyMqiv7TeJvmZvszsUVrc3foup1fEouD5XE0FT2j3n5zY5tG2JpeI+qtM+N6tfo1LcsnuUsVzNJqltLRF7XtfWBt4zTYbO2i2plZe3Uw9NfpM7OU/y1TuX9SyuppzZamkkZ8eOal7LSwuLSqukjBh2buwjaD3zukAzVxJTEKAdT3Ujr1Er6geZk/lsOTvnZl6jH2VoRIfis7qgZlVEsCwBOkbgEgHURNbic4cQ4sX0Qdyi3rt9YtdTC8HV0mSvOkZ2eeNDOlNTfQBLeJrau8AesjcGJhunVOmehjhRKlfBxET7SmWIVRdmIAA2kk2AHGKUPQHItgeaycHO2tUqPwFqY/QTxnMl2QMmjC4ajhx/pU0UnrIHSPE3PGJmbKHRnVkcY3CVsObXdDok7nHSQ8GAnleohUlWBDAkEHaCNRBnsCee+V/N77LjDXRbU8Td9WwVB/iDjcN+I9UfG+dCtEAiIlhBERACY5it0ao+JD5hv2nxn2P8ABP8AU/6TszFXoVT8SDyDH6xn17FLxP8AITT/ALJb/QQ2STMdf4znqpn1Zf2kbkuzFpf4reBR+Yn5iSxLdIkj5z6q9KkvY7eZAHyMik3WdtfTxDDcoVfTSP6ppZzK90zjJxmSlqDHrdvRVE1+fJ6VIfC3zWbrNSno4ZPiLN5sbegEj+ez3rIvuoPVm/YTRfGFf9C79RgZtrfE0vET5Kxljyvc0xfEp2Bz+Uywo3TL0P8ASWZ8lTvtPefnM/N3/M0vF9DMGqOk3iPzMz83f8zS8R+TTJPvX6Vr2v8ACY50H+Wqfh/WsryWFnV/lanen6xK9lup96/CPT+x/pl5JqaNekep19SB9ZZGLfQR291GPkCZV1NrEHqIPkbyy8pa6NS2+m9uKGP0z9NEurXqgrGJzOJkNoiIgAk05Kci/a8oIxF0ofxW1arqbUx36RB/CZC56I5JM3vsmCFR1tUxFna+0Jb+Gp4Et3uYlvSGlck8iIkBxI7nvm6uUcI9A2DjpU2P3ai30eB1qexjJFOIIDyDXpNTZkZSrozKynarKbMD2ggzqlxcseZ975QoDqFdQNw1LVt2ag3A7jKemia2ibWjiIn3Spl2CqLsxAA7SbCMcJ1mbR0cPpe+7HgLL/1M1efNW70091WY/iIA/SZLMJQFKmiDYigX7hrMrnLON5+s7j2SbL4RqH78ZqyemFJSuFowZPs1aIp4YM2rSLMe7YPRZBcPRLuqLtYhR3k2k7zhqjD4Uouq4WmvcRY/lBk8PG6+iZBMTWNR3c7XZm8yTOqJsMh4bnMRTXdpBj3L0j8rcZJJ09AWHgKHN00T3UUcQBeQPOerp4l/h0V8lF/W8sN3CgsdgBJ7hrMqrEVS7sx2szN5kmauoepUk45bZtM1GtiU7Q4/KZYIlb5vVNHEUj8Vv7gV+ssmN03sf6Sz+SqsULVHHxN8zM7Nz/M0u8/IzFymujWqD43/AFGd2Qn0cRSPxgeer6zKuLX6XrmX+E1zoF8NU/CfJlldyyc4Evh6o+Eny1/SVtLdV71+EOlfof6DLLyW/O0EJ+8gB77aJ9bytJOsz8RpUNHejEcDrH1h0z9TX2L1s+hV9MhFWkUYqdoJB7wbT4m6zswvN1y1tTgMO/YfUX4zSyFT200aYrulV9nERMnJ+DevUSjSUs7sFUDeT8hvJ3AExRyScnGbH/6GLUMP4NLReqdxF+jT/EQR3Bp6VAkfzMzbTJuGWiti56VR/ecjWe4bB2CSKZ6rbHS0IiIp0REQA66iBgQQCCCCCLgg7QRvE888pOY7ZPqGtSBOGqNqP+0x+43Z7p4bRr9EzHx2ESvTalVUMjghlOwgzs1pnGtnkWSrM3Jdz9oYahcJ2nYzcNnnN3nLyZvhcQCjFsKxJ0/vJ/xt2nYG39+o9+PxaYWlpWACgKqDebdFRN2BJ+p+EcU65Zqs78q6Ccyp6bjpfCn7nZ3XkInZicQ1VmdjdmNyfoOydcW6762LT2yR5mYLTqtVI1INXibV6C/mJ2Z7Yq7pSGxQWPe2oegPnJDkDAcxRRSOkek3ibdwFhwkCyviedrO+4sbeEal9BK0uzGl9gYklOZGFuz1TuAUd51t8l85FZY+bmF5rDoDtYaZ721/Kw4TmCd1v6Ep6R150Yrm8O43vZR+L2vygyvJJc9MXpVFpA6kFz4m/YW85G5zNXdX4ELUndhKuhURvdZW8iD9JaV5U5lm5Jr85Qpt1qt+8Cx9QZXpXy0Q6hcJkDzip6OIqj4r+YB+swsPU0HVvdZT5EH6TdZ40tHEaXvKp4i6/QTQzPkWrf6Wh7hfhaeLp6aOvvKw8wZVksvIuI5yhTa+vRAPevRPykDy5hear1F3aRI8J6Q+duE0dStzNIzdK9VUMwJI8y8Ro1mQ7HXV4l1/It5SOCZOTcTzVVKnusCe7YfQmZ8ddtJmjLHfDn+xM87cFztHTA6VM34HU30PCQO+6WsCHXcVYcCCJXGU8ntSrmkoJJYaIAJLX9kADWTu7xNHVRpq0Yv/AJ+XaeN/HgwUUkgAEkkAAaySdgA3mX7yX5jfYU+0V1H2moNS/wCyh+74zvPDrvi8mvJ2MLo4vFKDX2pTOsUb7z1v+nvlnTzrvfCPVS0cxESZ0REQAREQAREQA6qtJXUqwBBFiCLgjtEp/lK5P65/mMLepTQG9Aa2XeWT3x2e13y5InZpz4A8ekW1Tb5s5P56utx0EszcDqHE/Iy9s8OTzDZQvUH8Guf9VALMf+RNjd+o9u6QvD5p1cmpout7m7VFuVY7Br3atxtvmrC5qkmTa0YOW8XzNB2vrtZfE2ofO/CVmJKM9MfpOtFTqTpN4iNQ4D9Ui8rmrurX0cRl5MwvO1Up+8wv4Rrb0Blm1ai01LHUqgk9gAkQzJwd2esdijRXvNix4C3nNlnhjeboimDrqG34Rrb6DiZXF6YdMlfqpSQvF4g1HZ22sxbuvsHDZOiImQqJN8y8TpUmpnarXHhbX8w0hM3OauM5uuoJ6L9E952eurjK4b7bRPLPdDNvnxQutOp1FlPEXHyPnIfLHy/hedoOBtA0h3rrt8xxlcRuonVb+yfTV3Rr6JdmVjNT0SdnSHcdRHnYz7zzwF1Wso9nUfCfZPA6uMjGTsWaNRag3HWOtTqYeUsno1k3FXXgVYSuLWTG5flGfO3hyrIvD/jKsibHKeSmo1eaAZtI9CwJLA7LAbTutJtmpyT4jE6NTFE4embHQ1c8w8J1J+K57Jjr0vTPQlqkmvBg5k4l8QPs6q7uvshR90+82xQDvJAsRLezczQp4dxXrBalcCwa3Rpg7Ql9d9etjr6rAkTb5DyHQwVPmsPTVF2m2tmPWzHWx75s4l9RVSp+BI6bHFu0uWfUREgaBERABERABERABERABERABPhlBFiLg7jPuIAQPOTkwwWLLOgNCo1zpU7aJJ3tTOr+3RPbK0y1yU47D3NMJiF66Zs1u1Gt+UmehojKmjmijcn4D7PTWiwKso6QYEHSOtjY69t5A84cfz9ZmB6K9Fe4bTxNz5T1RXw6VBZ1Vh1MAR5GRnKHJ3k2ttwyIeumWT0Qgek0V1PdKWtE5xae9nmmJdWWOSrBUwWR8QOzTQj8yE+sgGWs2qVH2WqHvK/RRFVbO6IpANtY1Hrmzp5OXrb0/aS/IWY2HxFtJ6w8LJ9UM63oNGVknGCvSV95FmHUw1MP/uuQLLmC5isybFvdfCdY8tY4S/MjcnWEwykK1ZwxBOm422+BVm/w2beEpkMuHplhsZl0mHcz3IlMvUqoS1yjPiwOMj54Z5qyTm3i8Xb7Ph6jg/fCkJ/e1l9ZbGaXJ3iaaWxNZFW9wiXZ1B2jTNlHkwlqCDMyzUnueDReOaWqWzVZLyFQw2umg07W021t29I7AeoWE20+bzmI229saUktI+oiJwYREQAREQAREQA//9k=;" parent="9NRVor-_VpwXLTIwyfvW-17" vertex="1">
          <mxGeometry x="19.180000000000007" width="41.64" height="40" as="geometry" />
        </mxCell>
        <mxCell id="9NRVor-_VpwXLTIwyfvW-15" value="Jellyseerr" style="text;html=1;align=center;verticalAlign=middle;resizable=0;points=[];autosize=1;strokeColor=none;fillColor=none;" parent="9NRVor-_VpwXLTIwyfvW-17" vertex="1">
          <mxGeometry y="30" width="80" height="30" as="geometry" />
        </mxCell>
        <mxCell id="9NRVor-_VpwXLTIwyfvW-18" value="" style="group" parent="WIyWlLk6GJQsqaUBKTNV-1" vertex="1" connectable="0">
          <mxGeometry x="-131.6" y="585" width="60" height="70" as="geometry" />
        </mxCell>
        <mxCell id="9NRVor-_VpwXLTIwyfvW-14" value="" style="shape=image;verticalLabelPosition=bottom;labelBackgroundColor=default;verticalAlign=top;aspect=fixed;imageAspect=0;image=data:image/png,iVBORw0KGgoAAAANSUhEUgAAAOEAAADhCAMAAAAJbSJIAAABU1BMVEUACyWaY8WcYsWeYcWhYMSXZMajX8SlXsR7cMp4ccp2csuVZcZ0c8txdMttdsxydMtoeM1lec1ffM5Zfs8AAB0jlddSgdCQZ8chltddfc6MaccvkNUABh9MhNF/bsk+itOHa8gVm9lAidM1jtQOntqsXcUAABsFotsADimeVbaPYL4AFzFDKVwUEzMfFjgiFzs4IU9KQn43M2RKKV9nR49dcL9gZrRqO4E3R32FWrIpH0csG0MtKVVQN3N0P4sMKUk7ZqYeWIlhVZ4SOF1AVZEeerKIT6Z+VKlpS5YODitbSIxbNHN8ZLyLTqVbT5RtYrRcXqcrMV2QTqgUHDxxWqsxQnVVbbc8O3EmOGQ+WpkmQ3EeKlBEd75PZawzYZwtOmgYUn8QQmkfbqUILk4VXIkvca8QWIMZfrY5UYkMaZdFNW0FUHUFdaQGkMUAITswXZUAO1kpb3qXAAANqElEQVR4nO2d51vbShPFHQIEMHApoiQMzTQFY8CE4iSA6WAgtrkmVNPxhRRI/v9P70pyUTmyBUiWzbvnYx4g/j1nNLM7s1p7PFxcXFxcXFxcXFxcXFxcXFxcXFxcXFxcXFxcXFxcXM8SSXL7QzgoovHJscnxV8tInsm5jYqKis/TXzyvkpEm5ioq3759W1HxZnR64hUi0thGZWWlDPjmTdXm2GtDJHHnY3Vl2sI3VVXe0QXxVTFSYLFSDVjl9XqnA68IkcYXq6urlRhVLGTq2Bp/NYg0kQFUWdjR8XoQaWLjnQSYTTOKha8HUQJ8hyzs6PjwKhBZktEAqizs+PBhK1L2iBSRAdVpJmch03bZI4pz70xjlKmvb1t0+yO+UDsf9RZ6tYS7P8vaRPr0MWshitE+pt2pMkakyQxgpTpGtYR9u/Nli0hfvw3lTTMyYF/PfqJMEeU6YVYpcoB9PT3RMk2oNKcAavYUwEKmYFkSKlkmb6XIEvaUY7ZhWWZInWYq9DGqsrCnJ/al7BBpXMoyVi3sqVkJuP2Jnyz5ITTuKTrAUygR1gTd/sBPFO28M6YZVCkygDW1U4LbH/opoq8fnxSjDLA2Vk5VkVXCIZWFeEGqs7C2rqyq4s7Qky2sq6s7LBtCGsvFqHUL6+pn98oEkSb+HXpnxUItYF19fTzh9me3qLmhofyVwhijkoX19Q3lsXpjq7VnpBkJ8J+GhnKIU/qaL0a3FqYWtnY/QAsZYGO8DEqGuDhkauHmzwgRRab2oYUNTI1rbn/+gsrEKLJwKz1To/FtQ6WQLWxobJzZK/GljZRHcZrxji5kKzqJwV1DjCqEjbOlHqcwRqtkQNXglzxpRL2FjU1NpR2nUozqLcwCahU0pBkFsKmk45QmvpmkGQOggqipFGnCprNSrvvpWm9MM0ZACRFZ2NTUHCr657YqaT2K08w02DaQGM2tZlSEzc0zp6WabCLfTCzcggNtCqwY0oxM2HxWorMMYnsmaOGmSZuJEjFNjKYtZPpekiZKzTVYKT6bniyhvRiysLn5oCTjNLJoEqMoy6RFh7UIsKVlrQTjVFUKtZViOu+vRet0aUYGbGk5KrmimF2u6S3czDuqp0QcWdjSUnpFkeaGoIWfC4zOaH4WWdjyPlRiT2I2zegtXCj0QekQWfj+faklGynN6NtrkoVbkYK/KsYlwiadhe9bj0sq2dDOO1gpPls4ZUmJWTVhBrC1tZSSDUwzjHDU0ikEujDGqES4VELJxizNTFsLNHFNn2YkwNbWUMmYaJZmNi2eBGZxCixsbU+WzHZfk2ZyC9JRy+eA6QJZ2N5+7+jHti6T1UxV/sWMVmuaNKNYyFQayUaa9uZiNNe6+PyEwTUlDoCF7e1Lfgc/uGWpNk1qC63l0ewf+Y4A29tPSsBEswWphVqvlnisSzOKSiHZmFQKsxilYZN/P50BFrZ337tuolmlwOtRikwFp/CoVwjp04wE2J0Mu22iiCvFJu7MfFmpqamJ4jV15AxY2N39x2GAQlK119QW4lJI8zG5gRiDOyrhCAF2J1fdNRG11xghXK7Rl5jUA66trY1BF8XjTIyqCbvPXd1j0Ce4p4BpJg0oNxDhmJBODwBgd7erZT+AO6QozVBgRTWIwYghBVBHuOSiicYOaYV5mtlWzyn+gYe8EmcA0NftXtk3KfZetJqhQ90s7QL8kHBhBGRKubZ2M7FwC0SVlEbTaSY90Z5F2UY8BoQ+n1smSmcSUKWYBB9degh141B0eEY4Ahb6fKlHdyqGar2mqRToR4OGcWhDI+oXimutRkCf79IVE6XzhxYrBc3vgnEoGqLRadIQo0wpV9ZuBOcUsEEKYlQaNcXB9oPugYU+37ILJmosfJuzEDTxKWg4OKPM0kCcUiJptNDnc2UBDifayMJMHjWOQ1GcCifAQl9v8U1MH8U3tNdAsY+s9KgrhZJmlA4p6mv7l4wW9va68CQuwkoBiv3wlOF8Xm5OcWG0hpmoB2SEvcvFgFJJNfBVV4pN8E5BwCxGpfbaGUg2/iWjhS6YuIhWM2hbqE8zulka6GvnTFQB9hb5STR5CkH3Sd4zmVqIJ/biEiLsDRcTkfQWmja5xShKM6o5BTjGJhwhwIFimpixUPfCCFhya1YzwMKWFlQx0ibqCHuL+SQaLawysdBYKfTz3mPjnxdWAeDAQPHSae6NGM2cAj2FU4UslI5dmJhoIEyFi0Enf+45Q6XIZ6HJ+bzsLA2UfeFEXQrTgAMDxdpiGCx8Y25h3kqRaXIDE/1LWkCFcL1I+8S0hdWFLYzAPYV+oo3OJAgnKsKBNGCxTMy8EqM7n7dpYqF+32u0sLUVmZgyxOjAQNd6UTo2tAMqhRe1n8T8FubmFOYm6gi7ropgIo3/C9KMF6xIab5gpci08UFNlE3UAxbFRO3bodnzeWhrHzXfU+jGocdgn3iJCIthYgC+wbw5YfhB+rJrIc2YnrqgcBIAdl073gCnT9DCbZNNhe6dH5RmlFMXwJo/PiNgV9eq0yZGFpGFqMGWiFlLM3KHNGlsngphSHjtMKByW4l6W1hlckpWauPX5OYU/zTg83mZNj5qa58DwLauG2dNpEWwp/CiNre4YjXNyO1DMGASVhFh262jhDTxERR77ybaNsU0b4fmSTPKoQuwNRJTALDt7tFRwh2UZrwLw8afDD7JwnY0QhMuEWGbk0u39GUX+sP46BQpW5JarBRpQhCmFE4BwDYnq75SKrR7Ci/OM19i2hjNUykUQtjVXtYCKoRtDlZ9pVToLRwFRyuGD/PEKLKwG4bpaq/Rwra2H44B5i620tyKhM53DUetLUjVB2eAM/4UAOy8c6xg0BxKMx1oSSquFCz2+pE9OpAgXALCts7/HCJkuwoQo3A9Q4FYgdaFJkaVo0EggVAYWNjZeedQrpHzjCHNeLfQzyZihVoXhlMXYOHGdK1PMxJhp1O5ZgNZ2AFPXjBC65UiTYiMkcLUCNjpTK6R84zxJXSTVyqihnFoAQu7z+H/GtZZKAN23jnS4ZfyjPEldByk0ilEq6uZNOCSSUf7GljY2e9Irhn/Bq9ANHmxiQKHcWuVQuE78eO/I1wCwM5OJ9Y1NFaN7s8zP69Ogb1gfNbKambpftVv5olwMwAI+zv/2m8iLaI004FmotlfITGxd7gWn52dmUGEyeTS+f3JakKkPB/Xvw4A+/t/2E5IE/+CStHRAdoXml+jYcEjJhKnexcX30OhNUn39/eh70dHR6cJP2MThAJ97FtIaP8eij5VwxtnLL5zQETCsKCVtS+BEK4QYH+/7SWRBSm6pvMpr408T8KNarmmIrQ7TKUVG7Iw32Nok/zrCLD/weZsyoIU34pUhPO71wjQ/jDNBKnuYqsCicYOCbeY0N4wpfFv0MIPBV9kfrmESwjYb+8Gg8YqQaWwnkpfIuEKEg7221v050zuzyseod7CwUFbG6eBDZOr/4tBeGlCaGeYso2TyZ3cRcs0ekBG+GBju4Z2zO543C9SPQSAg4O/bAzTRbMrEPscv/5XCVJjjDLZuNMPbJhe07n709Hv3xI8v0xidNDOB5G+oi+Jydxiue3c96gJQvjWJM1Isu9BpE95r/7fDzryPWps03hzewcB04T2PYg0l/fbG/r6dqNTCY+tTgqC5/Hq+k7butADjtwaZ17PEy0Wviw3Fp06jVCh3ayl/41tJP1hhge3hSrAwcHfdnkY2bBwoXNPTSwWPZxPiC/4Fke2Lfb4w6uX1+uoN2MgHHmwaWfD9oawUqDLcutn49HQ1F5CAbW0jSeSd/weP2O7Wr5OwSY3ilFGaFMrg75WFIpR3amLxtnZ+Npa6GJv7zSR8IuMVkDyeESRcYVXV0+W/5ynUr1oWGhuIWO0KZnSZIVZpVATqm5abUx3uZtnZg4ODs6Oj4/T/aeTjO7/MJ2fL6WSySQ6+lTYQolwxKbtBY1V5PmSGHxZrvGIpa4FDM+qo3GoaYwyQFsJrd7Jna/JDd6dtAoILByxndDyndzW5hR2WGgb4eQbi1f/55+lwbdDnwiotdA2wq+jVtOM5XGoERCeSchTKWTZtTANbD7XQnhdiX0W2tYzpWl1msGAmkrxDAufXimYbFu10eTo8yqF3RZq08zIg43dtoXnVwrn0syIndP8yPQTK0XBGNUSDjzHwh92toQpsjAKvhHOQqV4ebE3s/A/u0czk1sWLCxGmlEqxW/7x9wUWNhXP4VWF6T2WyjlmF+Pjhw3Gf+5X3BPUeh83osXpCMjg7+d4ZMQKTK/ve9SpcgQPvz4Kzp50psoMLW9v1v8SqHQMbxHwekXLohBzgdXYi+oFBAwLyGj63/4/euv33G8LKSYmA9GY7En7Huf9RSmAR/ufvz6++gpEl4Wc1jBjMfqnasUnQ93vxW4YXcuUpK6hmLidO8wGI/PFrAQPoUD5hbe3f24/fX3xi8KRbYOYrKojUjHnkKhtbOzg5mZPKXQp7FwQNde67q7W1+/vv3vavXm0e8R3IfTSO6Pehhq4vT06HsodL92fHa2dHCQhFfqZII0Jet6efny8urqhnH55cZwaaHpJaHKR7xIbogmEuFw+JTpaFWtm7AkRiSKMtOwfCjM7as8nyfKSHuqTXh+95+Li4uLi4uLi4uLi4uLi4uLi4uLi4uLi4uLi4uL6/9U/wP5N4V0w2VLnQAAAABJRU5ErkJggg==;" parent="9NRVor-_VpwXLTIwyfvW-18" vertex="1">
          <mxGeometry x="5" width="50" height="50" as="geometry" />
        </mxCell>
        <mxCell id="9NRVor-_VpwXLTIwyfvW-16" value="Jellyfin" style="text;html=1;align=center;verticalAlign=middle;resizable=0;points=[];autosize=1;strokeColor=none;fillColor=none;" parent="9NRVor-_VpwXLTIwyfvW-18" vertex="1">
          <mxGeometry y="40" width="60" height="30" as="geometry" />
        </mxCell>
        <mxCell id="9NRVor-_VpwXLTIwyfvW-21" value="" style="group" parent="WIyWlLk6GJQsqaUBKTNV-1" vertex="1" connectable="0">
          <mxGeometry x="560" y="490" width="40" height="71.5" as="geometry" />
        </mxCell>
        <mxCell id="9NRVor-_VpwXLTIwyfvW-19" value="" style="sketch=0;outlineConnect=0;fontColor=#232F3E;gradientColor=none;fillColor=#232F3D;strokeColor=none;dashed=0;verticalLabelPosition=bottom;verticalAlign=top;align=center;html=1;fontSize=12;fontStyle=0;aspect=fixed;pointerEvents=1;shape=mxgraph.aws4.user;" parent="9NRVor-_VpwXLTIwyfvW-21" vertex="1">
          <mxGeometry width="40" height="40" as="geometry" />
        </mxCell>
        <mxCell id="9NRVor-_VpwXLTIwyfvW-20" value="User" style="text;html=1;align=center;verticalAlign=middle;resizable=0;points=[];autosize=1;strokeColor=none;fillColor=none;" parent="9NRVor-_VpwXLTIwyfvW-21" vertex="1">
          <mxGeometry x="-5.625" y="43.92857142857143" width="50" height="30" as="geometry" />
        </mxCell>
        <mxCell id="9NRVor-_VpwXLTIwyfvW-24" value="" style="endArrow=classic;html=1;rounded=0;entryX=1;entryY=0.5;entryDx=0;entryDy=0;" parent="WIyWlLk6GJQsqaUBKTNV-1" source="9NRVor-_VpwXLTIwyfvW-19" target="9NRVor-_VpwXLTIwyfvW-13" edge="1">
          <mxGeometry width="50" height="50" relative="1" as="geometry">
            <mxPoint x="480" y="500" as="sourcePoint" />
            <mxPoint x="530" y="450" as="targetPoint" />
          </mxGeometry>
        </mxCell>
        <mxCell id="9NRVor-_VpwXLTIwyfvW-25" value="&lt;div style=&quot;font-size: 10px;&quot;&gt;Request Media&lt;/div&gt;&lt;div style=&quot;font-size: 10px;&quot;&gt;Movie/Show&lt;br style=&quot;font-size: 10px;&quot;&gt;&lt;/div&gt;" style="text;html=1;align=center;verticalAlign=middle;resizable=0;points=[];autosize=1;strokeColor=none;fillColor=none;fontSize=10;" parent="WIyWlLk6GJQsqaUBKTNV-1" vertex="1">
          <mxGeometry x="440" y="470" width="90" height="40" as="geometry" />
        </mxCell>
        <mxCell id="9NRVor-_VpwXLTIwyfvW-26" style="edgeStyle=orthogonalEdgeStyle;rounded=0;orthogonalLoop=1;jettySize=auto;html=1;exitX=0;exitY=0.5;exitDx=0;exitDy=0;entryX=0.5;entryY=0;entryDx=0;entryDy=0;" parent="WIyWlLk6GJQsqaUBKTNV-1" source="9NRVor-_VpwXLTIwyfvW-13" target="9NRVor-_VpwXLTIwyfvW-1" edge="1">
          <mxGeometry relative="1" as="geometry">
            <Array as="points">
              <mxPoint x="369" y="520" />
              <mxPoint x="340" y="520" />
              <mxPoint x="340" y="410" />
              <mxPoint x="170" y="410" />
            </Array>
          </mxGeometry>
        </mxCell>
        <mxCell id="9NRVor-_VpwXLTIwyfvW-27" style="edgeStyle=orthogonalEdgeStyle;rounded=0;orthogonalLoop=1;jettySize=auto;html=1;exitX=0;exitY=0.5;exitDx=0;exitDy=0;entryX=0.5;entryY=0;entryDx=0;entryDy=0;" parent="WIyWlLk6GJQsqaUBKTNV-1" source="9NRVor-_VpwXLTIwyfvW-13" target="9NRVor-_VpwXLTIwyfvW-0" edge="1">
          <mxGeometry relative="1" as="geometry">
            <Array as="points">
              <mxPoint x="369" y="520" />
              <mxPoint x="340" y="520" />
              <mxPoint x="340" y="430" />
              <mxPoint x="260" y="430" />
            </Array>
          </mxGeometry>
        </mxCell>
        <mxCell id="9NRVor-_VpwXLTIwyfvW-28" value="Movies" style="text;html=1;align=center;verticalAlign=middle;resizable=0;points=[];autosize=1;strokeColor=none;fillColor=none;fontSize=9;" parent="WIyWlLk6GJQsqaUBKTNV-1" vertex="1">
          <mxGeometry x="280" y="410" width="50" height="20" as="geometry" />
        </mxCell>
        <mxCell id="9NRVor-_VpwXLTIwyfvW-30" value="Shows" style="text;html=1;align=center;verticalAlign=middle;resizable=0;points=[];autosize=1;strokeColor=none;fillColor=none;fontSize=9;" parent="WIyWlLk6GJQsqaUBKTNV-1" vertex="1">
          <mxGeometry x="200" y="390" width="50" height="20" as="geometry" />
        </mxCell>
        <mxCell id="9NRVor-_VpwXLTIwyfvW-32" style="edgeStyle=orthogonalEdgeStyle;rounded=0;orthogonalLoop=1;jettySize=auto;html=1;exitX=0.5;exitY=0;exitDx=0;exitDy=0;" parent="WIyWlLk6GJQsqaUBKTNV-1" source="9NRVor-_VpwXLTIwyfvW-2" target="9NRVor-_VpwXLTIwyfvW-8" edge="1">
          <mxGeometry relative="1" as="geometry" />
        </mxCell>
        <mxCell id="9NRVor-_VpwXLTIwyfvW-33" style="edgeStyle=orthogonalEdgeStyle;rounded=0;orthogonalLoop=1;jettySize=auto;html=1;exitX=0.5;exitY=0;exitDx=0;exitDy=0;entryX=0.463;entryY=1.027;entryDx=0;entryDy=0;entryPerimeter=0;" parent="WIyWlLk6GJQsqaUBKTNV-1" source="9NRVor-_VpwXLTIwyfvW-2" target="9NRVor-_VpwXLTIwyfvW-7" edge="1">
          <mxGeometry relative="1" as="geometry" />
        </mxCell>
        <mxCell id="9NRVor-_VpwXLTIwyfvW-34" value="Indexers" style="text;html=1;align=center;verticalAlign=middle;resizable=0;points=[];autosize=1;strokeColor=none;fillColor=none;fontSize=9;" parent="WIyWlLk6GJQsqaUBKTNV-1" vertex="1">
          <mxGeometry x="185" y="520" width="60" height="20" as="geometry" />
        </mxCell>
        <mxCell id="9NRVor-_VpwXLTIwyfvW-35" style="edgeStyle=orthogonalEdgeStyle;rounded=0;orthogonalLoop=1;jettySize=auto;html=1;exitX=0;exitY=0.5;exitDx=0;exitDy=0;entryX=0.488;entryY=1.067;entryDx=0;entryDy=0;entryPerimeter=0;" parent="WIyWlLk6GJQsqaUBKTNV-1" source="9NRVor-_VpwXLTIwyfvW-1" target="9NRVor-_VpwXLTIwyfvW-5" edge="1">
          <mxGeometry relative="1" as="geometry" />
        </mxCell>
        <mxCell id="9NRVor-_VpwXLTIwyfvW-36" style="edgeStyle=orthogonalEdgeStyle;rounded=0;orthogonalLoop=1;jettySize=auto;html=1;exitX=0;exitY=0.5;exitDx=0;exitDy=0;" parent="WIyWlLk6GJQsqaUBKTNV-1" source="9NRVor-_VpwXLTIwyfvW-0" target="9NRVor-_VpwXLTIwyfvW-5" edge="1">
          <mxGeometry relative="1" as="geometry">
            <Array as="points">
              <mxPoint x="210" y="475" />
              <mxPoint x="210" y="430" />
              <mxPoint x="115" y="430" />
            </Array>
          </mxGeometry>
        </mxCell>
        <mxCell id="9NRVor-_VpwXLTIwyfvW-37" style="edgeStyle=orthogonalEdgeStyle;rounded=0;orthogonalLoop=1;jettySize=auto;html=1;exitX=0.5;exitY=0;exitDx=0;exitDy=0;entryX=0.07;entryY=0.4;entryDx=0;entryDy=0;entryPerimeter=0;" parent="WIyWlLk6GJQsqaUBKTNV-1" source="9NRVor-_VpwXLTIwyfvW-4" edge="1">
          <mxGeometry relative="1" as="geometry">
            <mxPoint x="243.29999999999995" y="158.00000000000023" as="targetPoint" />
            <Array as="points">
              <mxPoint x="115" y="158" />
            </Array>
          </mxGeometry>
        </mxCell>
        <mxCell id="9NRVor-_VpwXLTIwyfvW-40" value="" style="group" parent="WIyWlLk6GJQsqaUBKTNV-1" vertex="1" connectable="0">
          <mxGeometry x="-161.6" y="310.8" width="120" height="109.19999999999999" as="geometry" />
        </mxCell>
        <mxCell id="9NRVor-_VpwXLTIwyfvW-38" value="" style="image;points=[];aspect=fixed;html=1;align=center;shadow=0;dashed=0;image=img/lib/allied_telesis/storage/Datacenter_Server_Storage_Unit_Large.svg;" parent="9NRVor-_VpwXLTIwyfvW-40" vertex="1">
          <mxGeometry x="21.599999999999994" width="76.8" height="79.2" as="geometry" />
        </mxCell>
        <mxCell id="9NRVor-_VpwXLTIwyfvW-39" value="Storage Location" style="text;html=1;align=center;verticalAlign=middle;resizable=0;points=[];autosize=1;strokeColor=none;fillColor=none;" parent="9NRVor-_VpwXLTIwyfvW-40" vertex="1">
          <mxGeometry y="79.19999999999999" width="120" height="30" as="geometry" />
        </mxCell>
        <mxCell id="9NRVor-_VpwXLTIwyfvW-41" value="" style="endArrow=classic;html=1;rounded=0;entryX=0.5;entryY=0;entryDx=0;entryDy=0;exitX=0.497;exitY=1.133;exitDx=0;exitDy=0;exitPerimeter=0;" parent="WIyWlLk6GJQsqaUBKTNV-1" source="9NRVor-_VpwXLTIwyfvW-39" target="9NRVor-_VpwXLTIwyfvW-14" edge="1">
          <mxGeometry width="50" height="50" relative="1" as="geometry">
            <mxPoint x="-40" y="750" as="sourcePoint" />
            <mxPoint x="10" y="700" as="targetPoint" />
          </mxGeometry>
        </mxCell>
        <mxCell id="9NRVor-_VpwXLTIwyfvW-43" style="edgeStyle=orthogonalEdgeStyle;rounded=0;orthogonalLoop=1;jettySize=auto;html=1;exitX=0;exitY=0.5;exitDx=0;exitDy=0;entryX=0.983;entryY=0.309;entryDx=0;entryDy=0;entryPerimeter=0;" parent="WIyWlLk6GJQsqaUBKTNV-1" source="9NRVor-_VpwXLTIwyfvW-4" target="9NRVor-_VpwXLTIwyfvW-38" edge="1">
          <mxGeometry relative="1" as="geometry" />
        </mxCell>
        <mxCell id="9NRVor-_VpwXLTIwyfvW-44" value="" style="image;aspect=fixed;perimeter=ellipsePerimeter;html=1;align=center;shadow=0;dashed=0;spacingTop=3;image=img/lib/active_directory/internet_globe.svg;" parent="WIyWlLk6GJQsqaUBKTNV-1" vertex="1">
          <mxGeometry x="245" y="130" width="100" height="100" as="geometry" />
        </mxCell>
        <mxCell id="9NRVor-_VpwXLTIwyfvW-45" value="Internet" style="text;html=1;align=center;verticalAlign=middle;resizable=0;points=[];autosize=1;strokeColor=none;fillColor=none;" parent="WIyWlLk6GJQsqaUBKTNV-1" vertex="1">
          <mxGeometry x="270" y="90" width="60" height="30" as="geometry" />
        </mxCell>
        <mxCell id="9NRVor-_VpwXLTIwyfvW-46" style="edgeStyle=orthogonalEdgeStyle;rounded=0;orthogonalLoop=1;jettySize=auto;html=1;exitX=0.5;exitY=1;exitDx=0;exitDy=0;" parent="WIyWlLk6GJQsqaUBKTNV-1" source="9NRVor-_VpwXLTIwyfvW-14" target="9NRVor-_VpwXLTIwyfvW-20" edge="1">
          <mxGeometry relative="1" as="geometry">
            <mxPoint x="10" y="710" as="targetPoint" />
            <Array as="points">
              <mxPoint x="-102" y="680" />
              <mxPoint x="579" y="680" />
            </Array>
          </mxGeometry>
        </mxCell>
        <mxCell id="uqX1Zxq2ffEGe2VZ59z7-0" value="Media" style="text;html=1;align=center;verticalAlign=middle;resizable=0;points=[];autosize=1;strokeColor=none;fillColor=none;fontSize=16;" vertex="1" parent="WIyWlLk6GJQsqaUBKTNV-1">
          <mxGeometry x="210" y="650" width="70" height="30" as="geometry" />
        </mxCell>
        <mxCell id="uqX1Zxq2ffEGe2VZ59z7-1" value="Media" style="text;html=1;align=center;verticalAlign=middle;resizable=0;points=[];autosize=1;strokeColor=none;fillColor=none;fontSize=16;" vertex="1" parent="WIyWlLk6GJQsqaUBKTNV-1">
          <mxGeometry x="-110" y="490" width="70" height="30" as="geometry" />
        </mxCell>
        <mxCell id="uqX1Zxq2ffEGe2VZ59z7-2" value="Link to Torrent" style="text;html=1;align=center;verticalAlign=middle;resizable=0;points=[];autosize=1;strokeColor=none;fillColor=none;fontSize=9;rotation=-90;" vertex="1" parent="WIyWlLk6GJQsqaUBKTNV-1">
          <mxGeometry x="60" y="210" width="80" height="20" as="geometry" />
        </mxCell>
        <mxCell id="uqX1Zxq2ffEGe2VZ59z7-3" value="torrent" style="text;html=1;align=center;verticalAlign=middle;resizable=0;points=[];autosize=1;strokeColor=none;fillColor=none;fontSize=11;" vertex="1" parent="WIyWlLk6GJQsqaUBKTNV-1">
          <mxGeometry x="230" y="310" width="60" height="30" as="geometry" />
        </mxCell>
      </root>
    </mxGraphModel>
  </diagram>
</mxfile>
